<?xml version="1.0" standalone="no"?>
<!DOCTYPE svg PUBLIC "-//W3C//DTD SVG 20010904//EN"
 "http://www.w3.org/TR/2001/REC-SVG-20010904/DTD/svg10.dtd">
<svg version="1.0" xmlns="http://www.w3.org/2000/svg"
 width="260.000000pt" height="260.000000pt" viewBox="0 0 260.000000 260.000000"
 preserveAspectRatio="xMidYMid meet">
<metadata>
Created by potrace 1.11, written by Peter Selinger 2001-2013
</metadata>
<g transform="translate(0.000000,260.000000) scale(0.100000,-0.100000)"
fill="#000000" stroke="none">
<path d="M7 2590 c8 -9 9 -19 2 -32 -5 -10 -6 -18 -2 -18 4 0 19 -3 32 -7 17
-4 22 -2 19 8 -7 20 13 36 39 31 18 -3 22 -1 17 12 -7 19 -70 22 -77 4 -3 -10
-8 -10 -23 2 -13 10 -15 10 -7 0z"/>
<path d="M241 2584 c0 -11 3 -14 6 -6 3 7 2 16 -1 19 -3 4 -6 -2 -5 -13z"/>
<path d="M320 2589 c0 -4 -6 -6 -13 -3 -7 2 -21 -2 -31 -9 -15 -11 -17 -18 -8
-32 6 -12 7 -28 1 -43 -5 -13 -6 -28 -3 -34 9 -13 12 -68 4 -68 -15 0 -19 14
-9 31 10 20 3 24 -20 10 -7 -5 -11 -13 -8 -18 8 -12 -10 -39 -20 -30 -4 5 -1
12 6 16 11 7 11 10 -1 17 -21 12 -40 72 -26 80 7 4 5 10 -3 15 -11 8 -10 12 5
24 11 8 16 15 10 15 -5 0 -2 5 6 10 8 5 10 10 4 10 -6 0 -17 -7 -24 -15 -7 -8
-16 -12 -21 -9 -5 3 -9 -2 -9 -10 0 -9 -7 -16 -15 -16 -8 0 -14 -6 -13 -12 2
-8 -10 -14 -29 -16 -42 -4 -46 -32 -5 -32 22 0 30 -7 39 -31 10 -25 16 -29 33
-24 16 5 23 2 27 -14 4 -14 14 -21 32 -22 14 0 20 -3 14 -6 -7 -2 -13 -9 -13
-14 0 -6 5 -7 10 -4 6 3 10 1 10 -4 0 -6 -10 -11 -22 -11 -21 -1 -21 -2 -5
-11 9 -5 23 -7 30 -4 6 4 4 0 -5 -8 -14 -11 -15 -16 -5 -27 9 -10 9 -11 0 -6
-8 4 -13 1 -13 -8 0 -9 7 -16 15 -16 8 0 17 -11 21 -25 3 -14 10 -25 16 -25 5
0 6 -5 3 -10 -4 -6 -15 -8 -25 -5 -9 3 -29 1 -44 -4 -20 -8 -26 -17 -25 -38 0
-27 1 -28 11 -5 6 12 15 22 20 22 5 0 6 -4 3 -10 -3 -5 3 -10 15 -10 17 0 20
-4 15 -22 -11 -36 -11 -43 3 -40 6 1 12 -7 12 -18 0 -16 7 -20 33 -20 17 0 40
-6 49 -13 19 -15 35 -67 21 -67 -5 0 -10 -7 -10 -15 0 -24 14 -18 21 9 3 13 1
38 -5 55 -10 28 -9 35 10 55 25 26 27 46 6 46 -8 0 -15 -7 -15 -15 0 -8 -7
-15 -15 -15 -8 0 -15 9 -15 20 0 18 6 20 83 19 45 -1 72 -4 60 -6 -13 -2 -23
-11 -23 -19 0 -8 -4 -14 -10 -14 -5 0 -10 -20 -10 -45 0 -26 5 -45 11 -45 7 0
10 14 7 35 -4 32 -2 36 16 33 14 -2 20 -9 18 -20 -2 -12 4 -18 18 -18 12 0 20
-7 20 -16 0 -14 3 -14 15 -4 12 10 13 15 4 21 -10 6 -10 11 0 23 18 22 41 20
41 -3 0 -10 7 -22 15 -25 9 -3 15 -1 14 7 -4 29 3 37 31 37 22 0 30 -5 30 -18
0 -11 13 -21 41 -30 23 -7 43 -11 45 -9 9 9 -32 47 -53 50 -11 2 -28 8 -36 15
-8 7 -28 14 -46 16 -17 2 -33 5 -34 7 -1 2 -8 14 -15 27 -7 12 -10 22 -6 22
10 0 34 -28 34 -39 0 -6 5 -11 10 -11 13 0 13 6 -2 29 -9 15 -9 23 1 35 7 9
17 13 22 10 9 -5 69 22 69 32 0 11 -28 33 -34 27 -3 -4 -6 -2 -7 3 -6 56 -5
63 13 67 10 3 18 13 18 23 0 16 -1 16 -12 2 -12 -14 -16 -13 -36 13 -19 23
-20 29 -8 29 9 0 16 7 16 15 0 8 6 15 13 16 6 0 22 13 34 29 21 26 24 48 14
123 -1 4 -10 7 -21 7 -11 0 -20 6 -20 14 0 8 -12 17 -27 20 -45 9 -343 5 -343
-5z m30 -39 c0 -13 -7 -20 -20 -20 -13 0 -20 7 -20 20 0 13 7 20 20 20 13 0
20 -7 20 -20z m150 -35 c0 -8 -7 -15 -15 -15 -8 0 -15 7 -15 15 0 8 7 15 15
15 8 0 15 -7 15 -15z m31 -43 c-6 -2 -11 -10 -11 -18 0 -8 -4 -14 -10 -14 -13
0 -13 1 7 41 14 28 18 31 21 14 3 -10 -1 -21 -7 -23z m83 -32 c7 0 18 -11 24
-25 16 -34 15 -40 -3 -25 -12 10 -15 10 -15 -4 0 -9 -8 -16 -19 -16 -10 0 -21
-7 -25 -15 -3 -8 -12 -15 -21 -15 -8 0 -15 -4 -15 -10 0 -5 6 -10 13 -10 9 0
9 -2 -1 -9 -10 -6 -10 -10 3 -21 20 -16 19 -40 -1 -40 -13 0 -15 -7 -10 -30 3
-16 1 -30 -4 -30 -5 0 -12 16 -16 36 -4 20 -16 46 -27 57 -14 14 -17 22 -9 25
15 5 16 32 2 32 -6 0 -13 -7 -16 -15 -7 -17 -34 -21 -34 -4 0 5 -5 7 -10 4 -6
-4 -1 -14 12 -25 18 -14 20 -21 11 -31 -9 -9 -15 -8 -27 4 -9 9 -16 21 -16 27
0 6 -7 10 -16 8 -12 -2 -17 7 -19 37 -1 21 -7 41 -14 43 -6 2 -11 8 -11 14 0
7 4 7 13 1 6 -6 20 -9 30 -8 10 2 17 -3 17 -12 0 -13 -3 -13 -15 -3 -13 11
-14 10 -8 -6 15 -40 53 -52 53 -17 0 12 3 13 14 4 14 -12 46 -5 46 9 0 5 12
10 27 12 16 2 29 10 31 20 2 12 -2 15 -18 11 -19 -5 -20 -4 -9 21 9 18 16 23
23 16 19 -19 33 -11 30 18 l-4 27 11 -27 c6 -16 16 -28 23 -28z m-204 14 c0
-8 -7 -14 -15 -14 -8 0 -15 9 -15 20 0 13 5 18 15 14 8 -4 15 -12 15 -20z m70
12 c0 -3 -4 -8 -10 -11 -5 -3 -10 -1 -10 4 0 6 5 11 10 11 6 0 10 -2 10 -4z
m230 -14 c0 -5 -7 -17 -15 -28 -14 -18 -14 -17 -4 9 12 27 19 34 19 19z m-265
-60 c-8 -9 -35 20 -28 31 4 6 11 3 19 -8 8 -10 12 -21 9 -23z m-115 1 c0 -5
-12 -9 -27 -10 -19 -1 -22 1 -12 8 17 11 39 12 39 2z m-8 -48 c-2 -14 -9 -25
-15 -25 -6 0 -18 -7 -28 -16 -16 -14 -17 -13 -17 20 0 32 3 35 32 39 17 2 32
5 32 5 1 1 -1 -9 -4 -23z m48 5 c0 -5 -4 -10 -10 -10 -5 0 -10 5 -10 10 0 6 5
10 10 10 6 0 10 -4 10 -10z m-40 -75 c0 -6 -6 -17 -12 -23 -10 -10 -10 -15 2
-22 9 -6 10 -10 3 -10 -26 0 -54 46 -37 63 10 10 44 4 44 -8z m330 -77 c0 -5
-7 -8 -15 -8 -10 0 -15 10 -15 27 0 26 1 26 15 7 8 -10 15 -22 15 -26z m32 0
c-7 -7 -12 -8 -12 -2 0 14 12 26 19 19 2 -3 -1 -11 -7 -17z m-417 -28 c-3 -5
-10 -10 -16 -10 -5 0 -9 5 -9 10 0 6 7 10 16 10 8 0 12 -4 9 -10z"/>
<path d="M570 2420 c0 -5 5 -10 11 -10 5 0 7 5 4 10 -3 6 -8 10 -11 10 -2 0
-4 -4 -4 -10z"/>
<path d="M610 2420 c0 -5 5 -10 11 -10 5 0 7 5 4 10 -3 6 -8 10 -11 10 -2 0
-4 -4 -4 -10z"/>
<path d="M540 2360 c0 -5 5 -10 11 -10 5 0 7 5 4 10 -3 6 -8 10 -11 10 -2 0
-4 -4 -4 -10z"/>
<path d="M510 2330 c0 -5 5 -10 10 -10 6 0 10 5 10 10 0 6 -4 10 -10 10 -5 0
-10 -4 -10 -10z"/>
<path d="M510 2300 c0 -5 5 -10 10 -10 6 0 10 5 10 10 0 6 -4 10 -10 10 -5 0
-10 -4 -10 -10z"/>
<path d="M1160 2596 c0 -2 7 -6 15 -10 8 -3 15 -1 15 4 0 6 -7 10 -15 10 -8 0
-15 -2 -15 -4z"/>
<path d="M1477 2580 c3 -11 8 -20 12 -20 4 0 7 9 8 20 1 11 -4 20 -12 20 -8 0
-11 -7 -8 -20z"/>
<path d="M1520 2591 c0 -6 5 -13 12 -17 6 -4 8 -3 4 4 -3 5 0 13 6 15 8 3 6 6
-4 6 -10 1 -18 -3 -18 -8z"/>
<path d="M2330 2590 c0 -5 5 -10 11 -10 5 0 7 -5 3 -11 -3 -6 8 -3 25 5 40 21
39 26 -4 26 -19 0 -35 -4 -35 -10z"/>
<path d="M1235 2580 c-3 -5 -1 -10 4 -10 6 0 11 5 11 10 0 6 -2 10 -4 10 -3 0
-8 -4 -11 -10z"/>
<path d="M2570 2575 c0 -8 -7 -15 -15 -15 -9 0 -12 -6 -9 -15 4 -10 0 -15 -15
-15 -12 0 -21 -6 -21 -15 0 -11 12 -15 45 -15 l45 0 -2 45 c-1 30 -6 45 -15
45 -7 0 -13 -7 -13 -15z"/>
<path d="M1174 2549 c0 -11 5 -18 10 -16 16 5 18 24 4 30 -9 3 -14 -3 -14 -14z"/>
<path d="M1410 2551 c27 -22 40 -26 40 -12 0 5 -8 11 -17 15 -10 3 -25 9 -33
12 -8 3 -4 -4 10 -15z"/>
<path d="M70 2549 c0 -5 5 -7 10 -4 6 3 10 8 10 11 0 2 -4 4 -10 4 -5 0 -10
-5 -10 -11z"/>
<path d="M115 2550 c3 -5 8 -10 11 -10 2 0 4 5 4 10 0 6 -5 10 -11 10 -5 0 -7
-4 -4 -10z"/>
<path d="M236 2545 c4 -8 8 -15 10 -15 2 0 4 7 4 15 0 8 -4 15 -10 15 -5 0 -7
-7 -4 -15z"/>
<path d="M2475 2551 c-6 -11 9 -23 19 -14 9 9 7 23 -3 23 -6 0 -12 -4 -16 -9z"/>
<path d="M2340 2510 c0 -11 -6 -20 -14 -20 -11 0 -11 -8 -3 -40 6 -22 15 -40
20 -40 6 0 16 -8 24 -17 13 -17 14 -16 12 7 -4 68 1 100 16 100 8 0 15 5 15
11 0 7 -10 9 -25 7 -13 -3 -22 -1 -19 3 3 5 -2 9 -10 9 -9 0 -16 -9 -16 -20z"/>
<path d="M2440 2521 c0 -5 7 -11 15 -15 9 -3 15 0 15 9 0 8 -7 15 -15 15 -8 0
-15 -4 -15 -9z"/>
<path d="M5 2510 c3 -5 11 -10 16 -10 6 0 7 5 4 10 -3 6 -11 10 -16 10 -6 0
-7 -4 -4 -10z"/>
<path d="M1348 2513 c7 -3 16 -2 19 1 4 3 -2 6 -13 5 -11 0 -14 -3 -6 -6z"/>
<path d="M235 2500 c3 -5 8 -10 11 -10 2 0 4 5 4 10 0 6 -5 10 -11 10 -5 0 -7
-4 -4 -10z"/>
<path d="M780 2483 c0 -13 5 -23 10 -23 13 0 13 11 0 30 -8 12 -10 11 -10 -7z"/>
<path d="M1435 2480 c3 -5 11 -10 16 -10 6 0 7 5 4 10 -3 6 -11 10 -16 10 -6
0 -7 -4 -4 -10z"/>
<path d="M1470 2480 c0 -5 5 -10 11 -10 5 0 7 5 4 10 -3 6 -8 10 -11 10 -2 0
-4 -4 -4 -10z"/>
<path d="M2270 2470 c-10 -6 -11 -10 -2 -10 6 0 12 -5 12 -11 0 -5 -4 -7 -10
-4 -6 4 -10 -8 -10 -29 0 -20 5 -36 11 -36 5 0 7 6 3 13 -5 8 -2 7 9 -2 22
-17 30 -10 31 29 1 21 -5 32 -17 36 -9 3 -15 10 -12 15 8 11 4 11 -15 -1z"/>
<path d="M4 2458 c-4 -6 -1 -14 6 -18 10 -6 9 -9 -1 -13 -11 -3 -11 -8 -3 -17
9 -9 15 -7 27 10 l15 21 43 -22 44 -22 -19 22 c-11 11 -27 21 -38 21 -10 0
-18 6 -18 14 0 16 -47 19 -56 4z"/>
<path d="M946 2441 c-4 -5 -2 -12 3 -15 5 -4 12 -2 15 3 4 5 2 12 -3 15 -5 4
-12 2 -15 -3z"/>
<path d="M1690 2446 c0 -2 8 -10 18 -17 15 -13 16 -12 3 4 -13 16 -21 21 -21
13z"/>
<path d="M1525 2430 c3 -5 8 -10 11 -10 2 0 4 5 4 10 0 6 -5 10 -11 10 -5 0
-7 -4 -4 -10z"/>
<path d="M820 2420 c0 -5 5 -10 11 -10 5 0 7 5 4 10 -3 6 -8 10 -11 10 -2 0
-4 -4 -4 -10z"/>
<path d="M26 2391 c-5 -7 -3 -18 3 -24 14 -14 20 -6 11 17 -5 15 -9 16 -14 7z"/>
<path d="M850 2390 c0 -5 5 -10 10 -10 6 0 10 5 10 10 0 6 -4 10 -10 10 -5 0
-10 -4 -10 -10z"/>
<path d="M2230 2390 c0 -5 5 -10 10 -10 6 0 10 5 10 10 0 6 -4 10 -10 10 -5 0
-10 -4 -10 -10z"/>
<path d="M1484 2375 c3 -9 0 -15 -10 -15 -9 0 -12 5 -8 13 4 7 3 9 -2 4 -5 -5
-9 -12 -9 -15 0 -4 -3 -12 -7 -18 -5 -8 3 -8 27 0 37 12 46 30 19 40 -12 4
-15 2 -10 -9z"/>
<path d="M1530 2374 c0 -6 8 -18 17 -25 15 -12 16 -12 10 4 -4 11 -1 17 9 17
8 0 13 4 9 9 -8 14 -45 9 -45 -5z"/>
<path d="M2417 2373 c-4 -3 -7 -19 -7 -35 0 -18 -5 -28 -15 -28 -8 0 -15 -7
-15 -15 0 -8 -7 -15 -15 -15 -8 0 -15 -7 -15 -15 0 -8 7 -15 15 -15 8 0 15 7
15 15 0 8 7 15 15 15 8 0 15 -7 15 -15 0 -8 9 -15 20 -15 11 0 20 4 20 10 0 5
7 7 15 4 11 -5 12 -11 4 -25 -6 -13 -6 -19 1 -19 5 0 9 -5 8 -11 -2 -6 3 -14
10 -16 9 -3 13 2 12 13 -1 11 -2 39 -1 63 1 42 2 43 16 25 14 -19 14 -19 15 1
0 12 3 16 8 9 4 -6 14 -13 23 -16 21 -8 14 -68 -8 -68 -11 0 -14 -10 -12 -37
3 -31 0 -37 -14 -35 -9 2 -17 -2 -17 -8 0 -5 20 -10 45 -10 25 0 45 5 45 10 0
6 -9 10 -20 10 -13 0 -20 7 -20 20 0 13 7 20 20 20 18 0 20 6 18 59 -1 48 -5
60 -20 64 -21 6 -14 37 8 37 8 0 14 7 14 15 0 24 -77 20 -92 -5 -8 -12 -24
-20 -40 -20 -21 0 -28 5 -28 20 0 20 -11 26 -23 13z m61 -76 c2 -12 -3 -17
-17 -17 -12 0 -21 6 -21 13 0 31 32 34 38 4z"/>
<path d="M1370 2355 c0 -8 2 -15 4 -15 2 0 6 7 10 15 3 8 1 15 -4 15 -6 0 -10
-7 -10 -15z"/>
<path d="M2175 2360 c-19 -8 -19 -9 3 -9 12 -1 22 4 22 9 0 6 -1 10 -2 9 -2 0
-12 -4 -23 -9z"/>
<path d="M2210 2360 c0 -5 5 -10 10 -10 6 0 10 5 10 10 0 6 -4 10 -10 10 -5 0
-10 -4 -10 -10z"/>
<path d="M2260 2360 c0 -5 5 -10 10 -10 6 0 10 5 10 10 0 6 -4 10 -10 10 -5 0
-10 -4 -10 -10z"/>
<path d="M2350 2360 c0 -5 7 -10 15 -10 8 0 15 5 15 10 0 6 -7 10 -15 10 -8 0
-15 -4 -15 -10z"/>
<path d="M1416 2343 c-6 -14 -5 -15 5 -6 7 7 10 15 7 18 -3 3 -9 -2 -12 -12z"/>
<path d="M53 2333 c-3 -10 -8 -21 -10 -25 -2 -4 3 -5 10 -2 17 6 30 44 16 44
-5 0 -12 -8 -16 -17z"/>
<path d="M115 2340 c-3 -4 4 -10 15 -13 11 -3 22 -2 25 3 3 4 -4 10 -15 13
-11 3 -22 2 -25 -3z"/>
<path d="M1776 2333 c-6 -14 -5 -15 5 -6 7 7 10 15 7 18 -3 3 -9 -2 -12 -12z"/>
<path d="M170 2330 c0 -5 5 -10 11 -10 5 0 7 5 4 10 -3 6 -8 10 -11 10 -2 0
-4 -4 -4 -10z"/>
<path d="M835 2330 c-3 -5 1 -10 10 -10 9 0 13 5 10 10 -3 6 -8 10 -10 10 -2
0 -7 -4 -10 -10z"/>
<path d="M2290 2330 c0 -5 5 -10 10 -10 6 0 10 5 10 10 0 6 -4 10 -10 10 -5 0
-10 -4 -10 -10z"/>
<path d="M1561 2306 c-9 -10 -8 -15 2 -19 8 -3 13 3 13 14 0 23 0 23 -15 5z"/>
<path d="M1880 2309 c0 -5 5 -7 10 -4 6 3 10 8 10 11 0 2 -4 4 -10 4 -5 0 -10
-5 -10 -11z"/>
<path d="M145 2300 c-3 -6 -1 -10 5 -10 6 0 15 -10 20 -22 l9 -23 0 23 c1 12
7 22 15 22 32 0 23 17 -9 18 -19 1 -37 -3 -40 -8z"/>
<path d="M52 2288 c-20 -20 -14 -38 12 -38 35 0 56 10 56 26 0 16 -26 19 -35
4 -10 -16 -25 -12 -19 5 7 18 2 19 -14 3z"/>
<path d="M705 2291 c-3 -5 -1 -12 5 -16 5 -3 10 1 10 9 0 18 -6 21 -15 7z"/>
<path d="M842 2280 c-12 -20 -42 -27 -56 -13 -3 4 -13 8 -22 9 -12 2 -13 -1
-3 -12 6 -8 22 -14 34 -14 13 0 25 -7 29 -15 3 -8 1 -15 -4 -15 -6 0 -10 -7
-10 -16 0 -10 4 -12 13 -7 6 4 17 8 22 8 6 1 9 6 8 13 -2 6 3 9 11 6 7 -3 16
2 20 11 3 10 2 14 -5 10 -5 -4 -18 -4 -27 0 -15 6 -15 8 -1 14 10 4 14 12 10
23 -6 17 -7 16 -19 -2z"/>
<path d="M1785 2289 c-4 -6 -5 -12 -2 -15 2 -3 7 2 10 11 7 17 1 20 -8 4z"/>
<path d="M1249 2278 c-4 -15 -6 -38 -3 -38 2 0 8 9 14 20 7 14 7 20 0 20 -5 0
-10 -1 -11 -2z"/>
<path d="M1530 2266 c-9 -12 -8 -15 8 -13 12 0 18 6 15 14 -6 16 -8 16 -23 -1z"/>
<path d="M2260 2265 c0 -8 5 -15 10 -15 6 0 10 7 10 15 0 8 -4 15 -10 15 -5 0
-10 -7 -10 -15z"/>
<path d="M208 2252 c-7 -25 16 -51 25 -28 3 8 0 22 -7 32 -12 16 -13 16 -18
-4z"/>
<path d="M1825 2250 c3 -5 8 -10 11 -10 2 0 4 5 4 10 0 6 -5 10 -11 10 -5 0
-7 -4 -4 -10z"/>
<path d="M765 2230 c10 -11 20 -20 22 -20 2 0 -1 9 -7 20 -6 11 -16 20 -22 20
-6 0 -3 -9 7 -20z"/>
<path d="M1346 2242 c-3 -6 -1 -14 5 -17 15 -10 25 3 12 16 -7 7 -13 7 -17 1z"/>
<path d="M1620 2234 c0 -8 5 -12 10 -9 6 4 8 11 5 16 -9 14 -15 11 -15 -7z"/>
<path d="M155 2219 c-8 -24 -1 -34 19 -26 9 4 12 14 9 26 -7 27 -20 27 -28 0z"/>
<path d="M1552 2218 c6 -16 15 -28 19 -28 5 0 6 -6 3 -14 -3 -9 5 -22 21 -32
32 -21 38 -16 21 18 -8 15 -12 29 -8 32 3 3 -4 6 -15 6 -11 0 -28 10 -37 23
-16 22 -16 22 -4 -5z"/>
<path d="M130 2215 c0 -8 2 -15 4 -15 2 0 6 7 10 15 3 8 1 15 -4 15 -6 0 -10
-7 -10 -15z"/>
<path d="M906 2203 c-8 -20 -5 -22 15 -14 14 5 15 8 4 18 -10 10 -15 9 -19 -4z"/>
<path d="M1241 2204 c0 -11 3 -14 6 -6 3 7 2 16 -1 19 -3 4 -6 -2 -5 -13z"/>
<path d="M2176 2211 c-4 -7 -5 -15 -2 -18 9 -9 19 4 14 18 -4 11 -6 11 -12 0z"/>
<path d="M2325 2209 c-10 -15 3 -25 16 -12 7 7 7 13 1 17 -6 3 -14 1 -17 -5z"/>
<path d="M865 2199 c-4 -6 -4 -13 -1 -16 3 -4 6 -1 6 6 0 7 5 9 12 5 7 -4 8
-3 4 4 -9 15 -13 15 -21 1z"/>
<path d="M1365 2183 l-30 -25 32 16 c23 12 32 13 35 4 3 -8 6 -9 11 -1 4 6 1
15 -6 21 -8 7 -21 3 -42 -15z"/>
<path d="M767 2193 c-8 -12 9 -36 21 -32 7 3 6 10 -3 22 -7 10 -15 14 -18 10z"/>
<path d="M1620 2190 c0 -5 5 -10 11 -10 5 0 7 5 4 10 -3 6 -8 10 -11 10 -2 0
-4 -4 -4 -10z"/>
<path d="M1720 2185 c0 -8 2 -15 4 -15 2 0 6 7 10 15 3 8 1 15 -4 15 -6 0 -10
-7 -10 -15z"/>
<path d="M130 2173 c0 -10 5 -25 10 -33 9 -13 10 -13 10 0 0 13 1 13 10 0 13
-21 12 -6 -2 25 -13 29 -28 33 -28 8z"/>
<path d="M1277 2171 c16 -17 73 -46 73 -37 0 5 -75 56 -83 56 -4 0 0 -9 10
-19z"/>
<path d="M2076 2175 c-3 -8 -1 -15 4 -15 6 0 10 7 10 15 0 8 -2 15 -4 15 -2 0
-6 -7 -10 -15z"/>
<path d="M1000 2172 c0 -4 9 -13 20 -20 12 -7 20 -8 20 -2 0 5 -5 10 -11 10
-5 0 -7 5 -4 10 3 6 -1 10 -9 10 -9 0 -16 -3 -16 -8z"/>
<path d="M1426 2165 c-3 -8 -1 -15 4 -15 6 0 10 7 10 15 0 8 -2 15 -4 15 -2 0
-6 -7 -10 -15z"/>
<path d="M880 2162 c0 -15 28 -23 36 -9 4 7 4 9 -1 5 -4 -4 -14 -3 -22 3 -8 7
-13 8 -13 1z"/>
<path d="M1821 2153 c7 -10 15 -20 16 -22 2 -2 3 3 3 11 0 9 -7 19 -16 22 -15
6 -15 4 -3 -11z"/>
<path d="M651 2151 c-9 -6 -7 -10 8 -14 12 -3 21 -1 21 3 0 14 -15 19 -29 11z"/>
<path d="M1880 2136 c0 -8 -6 -17 -12 -19 -8 -3 -6 -6 5 -6 11 -1 17 6 17 19
0 11 -2 20 -5 20 -3 0 -5 -6 -5 -14z"/>
<path d="M2230 2139 c0 -5 5 -7 10 -4 6 3 10 8 10 11 0 2 -4 4 -10 4 -5 0 -10
-5 -10 -11z"/>
<path d="M2380 2140 c0 -5 7 -10 15 -10 8 0 15 5 15 10 0 6 -7 10 -15 10 -8 0
-15 -4 -15 -10z"/>
<path d="M2480 2140 c0 -5 5 -10 10 -10 6 0 10 5 10 10 0 6 -4 10 -10 10 -5 0
-10 -4 -10 -10z"/>
<path d="M698 2133 c7 -3 16 -2 19 1 4 3 -2 6 -13 5 -11 0 -14 -3 -6 -6z"/>
<path d="M1403 2123 c-3 -10 -7 -21 -9 -24 -2 -3 4 -6 12 -6 8 0 13 6 10 13
-3 7 0 14 7 17 8 2 8 5 -1 11 -7 4 -15 0 -19 -11z"/>
<path d="M799 2103 c-11 -13 -10 -14 8 -11 11 1 31 -6 44 -17 l23 -20 -20 27
c-24 35 -39 41 -55 21z"/>
<path d="M955 2110 c-3 -5 -3 -10 2 -11 4 0 -1 -4 -12 -9 -13 -5 -28 -3 -40 5
-19 12 -21 11 -19 -15 2 -36 11 -50 30 -50 14 0 13 2 0 16 -9 8 -16 20 -16 25
0 10 42 5 61 -7 8 -4 9 -3 5 4 -4 7 -2 12 3 12 13 0 14 27 2 35 -5 3 -12 1
-16 -5z"/>
<path d="M1500 2110 c-9 -6 -10 -10 -3 -10 6 0 15 5 18 10 8 12 4 12 -15 0z"/>
<path d="M1576 2105 c-9 -26 -7 -32 5 -12 6 10 9 21 6 23 -2 3 -7 -2 -11 -11z"/>
<path d="M2540 2110 c0 -5 7 -10 15 -10 8 0 15 -7 15 -15 0 -8 7 -15 15 -15 9
0 15 9 15 25 0 21 -5 25 -30 25 -16 0 -30 -4 -30 -10z"/>
<path d="M1041 2087 c0 -12 3 -16 6 -9 4 10 8 10 19 1 12 -10 13 -9 8 4 -10
26 -34 29 -33 4z"/>
<path d="M1759 2084 c-11 -14 -11 -18 4 -29 9 -7 17 -17 17 -23 0 -7 8 -9 18
-5 14 5 15 3 5 -8 -7 -7 -13 -20 -13 -28 0 -11 5 -10 21 5 21 19 21 18 40 -5
15 -18 22 -21 33 -12 15 12 10 55 -5 45 -5 -3 -6 2 -3 10 8 20 -10 21 -26 1
-16 -20 -22 -19 -49 6 -14 13 -21 29 -18 40 6 23 -6 25 -24 3z m126 -84 c3 -5
-1 -10 -10 -10 -9 0 -13 5 -10 10 3 6 8 10 10 10 2 0 7 -4 10 -10z"/>
<path d="M1855 2080 c3 -5 13 -10 21 -10 8 0 12 5 9 10 -3 6 -13 10 -21 10 -8
0 -12 -4 -9 -10z"/>
<path d="M2130 2080 c0 -5 7 -10 15 -10 8 0 15 5 15 10 0 6 -7 10 -15 10 -8 0
-15 -4 -15 -10z"/>
<path d="M1420 2060 c0 -5 -8 -10 -17 -11 -11 0 -3 -7 17 -16 19 -8 37 -19 40
-23 6 -9 80 -31 80 -24 0 2 -12 9 -26 14 -15 6 -22 14 -18 22 5 7 3 8 -5 4 -7
-5 -26 -2 -43 5 -28 12 -29 13 -12 26 16 12 16 13 1 13 -9 0 -17 -4 -17 -10z"/>
<path d="M1557 2050 c10 -11 19 -20 21 -20 1 0 -2 9 -8 20 -6 11 -15 20 -20
20 -6 0 -2 -9 7 -20z"/>
<path d="M938 2047 c13 -15 -1 -43 -16 -33 -12 7 -23 -17 -14 -30 8 -10 42
-15 40 -5 -2 18 3 31 13 31 6 0 8 -7 5 -15 -3 -9 1 -18 9 -21 8 -4 12 -11 8
-17 -3 -6 -1 -7 5 -3 17 10 15 46 -4 53 -8 3 -13 12 -10 19 3 8 -3 18 -14 24
-26 14 -35 13 -22 -3z"/>
<path d="M1342 2044 c10 -10 20 -15 24 -12 3 4 -5 12 -18 18 -22 12 -22 12 -6
-6z"/>
<path d="M2100 2030 c0 -20 5 -30 15 -30 8 0 15 -7 15 -15 0 -10 10 -15 30
-15 20 0 30 -5 30 -15 0 -8 7 -15 15 -15 8 0 15 -7 15 -15 0 -8 6 -15 13 -16
6 0 25 -2 42 -4 19 -3 25 -1 16 4 -7 5 -11 13 -7 19 7 12 -3 42 -14 42 -5 0
-11 -8 -13 -17 -3 -10 -5 3 -6 30 -1 35 -5 47 -16 47 -8 0 -15 7 -15 15 0 23
-27 18 -33 -6 -3 -12 -10 -18 -16 -14 -6 3 -11 -1 -11 -9 0 -9 -7 -16 -15 -16
-10 0 -15 10 -15 30 0 20 -5 30 -15 30 -10 0 -15 -10 -15 -30z"/>
<path d="M2450 2045 c0 -8 5 -15 10 -15 6 0 10 7 10 15 0 8 -4 15 -10 15 -5 0
-10 -7 -10 -15z"/>
<path d="M1227 2039 c7 -7 15 -10 18 -7 3 3 -2 9 -12 12 -14 6 -15 5 -6 -5z"/>
<path d="M1690 2040 c0 -5 5 -10 11 -10 5 0 7 5 4 10 -3 6 -8 10 -11 10 -2 0
-4 -4 -4 -10z"/>
<path d="M1196 2026 c3 -9 16 -16 28 -15 14 0 16 2 6 6 -8 3 -21 10 -28 16 -9
7 -11 6 -6 -7z"/>
<path d="M1590 2029 c0 -5 5 -7 10 -4 6 3 10 8 10 11 0 2 -4 4 -10 4 -5 0 -10
-5 -10 -11z"/>
<path d="M586 2019 c4 -7 -4 -20 -17 -30 l-24 -19 28 0 c17 0 27 -5 27 -15 0
-8 -7 -15 -15 -15 -8 0 -15 -7 -15 -15 0 -9 -7 -18 -15 -21 -17 -7 -21 -34 -5
-34 6 0 10 -7 10 -15 0 -8 5 -15 11 -15 5 0 8 -3 5 -8 -2 -4 1 -18 8 -31 12
-21 14 -22 29 -6 19 18 20 16 17 -35 -1 -19 -7 -38 -13 -42 -9 -6 -8 -11 3
-18 21 -14 30 -12 36 5 8 20 30 19 39 -2 7 -17 8 -16 15 2 7 20 7 20 14 -1 4
-12 16 -24 27 -27 15 -4 19 -11 15 -25 -4 -13 -1 -22 9 -26 8 -3 15 -14 15
-25 0 -14 5 -19 15 -15 10 4 15 0 15 -11 0 -13 6 -15 30 -10 26 6 30 4 30 -15
0 -19 -4 -21 -26 -17 -18 3 -22 1 -15 -6 6 -6 11 -21 11 -34 0 -13 5 -23 10
-23 6 0 10 -6 10 -14 0 -8 7 -16 15 -20 8 -3 15 -12 15 -20 0 -15 29 -36 49
-36 6 0 8 6 5 14 -3 8 3 16 16 19 16 4 23 -1 31 -19 5 -14 9 -30 9 -35 0 -11
11 -11 29 0 10 6 12 23 9 60 -4 39 -2 51 8 51 17 0 18 11 2 41 -9 17 -20 23
-35 21 -19 -3 -23 1 -23 25 0 16 -7 38 -15 50 -15 21 -28 113 -17 113 13 0 30
-48 20 -58 -5 -5 -6 -17 -2 -27 7 -17 8 -17 21 1 12 17 15 17 41 2 19 -11 31
-13 43 -5 14 9 14 14 2 50 -8 22 -22 46 -31 53 -24 17 -9 28 17 13 23 -15 42
-89 34 -133 -5 -23 -3 -28 9 -23 17 6 38 -10 38 -30 0 -7 -7 -13 -15 -13 -21
0 -19 -23 5 -40 11 -8 20 -19 20 -24 0 -5 8 -14 17 -21 14 -10 15 -16 5 -27
-14 -17 -6 -28 20 -28 13 0 18 -6 16 -17 -2 -13 -11 -17 -32 -15 -18 3 -26 0
-22 -7 4 -6 14 -11 22 -11 12 0 12 -4 -3 -24 -14 -19 -22 -22 -41 -15 -32 12
-75 11 -67 -1 3 -5 0 -10 -7 -11 -7 -1 -24 -2 -38 -2 -22 -2 -25 -7 -28 -42
-2 -22 -7 -42 -12 -45 -13 -8 1 -24 33 -37 28 -13 31 -9 30 34 -1 7 3 11 7 8
13 -8 50 44 43 61 -3 8 1 14 11 14 16 0 21 -16 17 -57 -1 -13 3 -23 9 -23 5 0
10 -13 10 -29 0 -26 -4 -30 -32 -33 -38 -4 -51 -32 -18 -41 11 -3 19 -11 17
-19 -2 -7 -2 -10 0 -5 8 13 31 8 37 -9 9 -23 8 -24 -24 -24 -16 0 -30 -4 -30
-10 0 -5 11 -10 25 -10 14 0 25 -4 25 -10 0 -5 10 -18 21 -29 14 -13 20 -27
16 -40 -3 -12 -2 -21 3 -21 11 0 21 43 11 50 -4 3 -14 16 -21 30 -10 21 -10
23 1 13 19 -19 29 -16 29 7 0 11 -7 20 -15 20 -10 0 -15 11 -15 35 0 34 1 35
36 35 35 0 36 -1 31 -29 -4 -20 -1 -33 12 -45 17 -16 19 -15 23 9 4 18 2 25
-6 22 -8 -3 -11 5 -8 25 3 16 11 32 18 35 8 3 14 12 14 21 0 8 3 12 7 8 4 -4
6 -24 4 -45 -2 -35 1 -40 28 -52 20 -9 26 -16 18 -21 -9 -6 -8 -10 3 -18 13
-8 12 -10 -2 -10 -10 0 -18 -7 -18 -15 0 -18 30 -20 30 -2 1 7 8 3 18 -9 10
-11 23 -19 30 -16 7 2 12 -5 12 -18 0 -12 4 -19 9 -16 13 9 8 32 -14 56 -10
11 -13 20 -7 20 7 0 12 4 12 10 0 5 -8 6 -17 3 -16 -6 -16 -5 -5 10 12 14 9
18 -23 31 -27 12 -36 20 -31 32 3 8 6 20 6 25 0 4 6 6 14 3 8 -3 17 -1 20 4 3
5 -4 12 -15 15 -15 4 -20 11 -15 22 3 9 2 14 -3 11 -5 -3 -11 1 -15 9 -7 18
-47 20 -64 3 -10 -10 -15 -10 -22 2 -8 12 -3 16 25 18 40 4 48 22 10 22 -24 0
-25 2 -25 65 0 70 7 77 53 54 21 -12 22 -11 4 8 -16 18 -16 21 -2 26 18 8 20
37 2 37 -7 0 -18 -5 -25 -12 -9 -9 -12 -8 -12 4 0 9 6 18 13 21 6 3 -5 12 -25
21 -24 10 -38 23 -38 34 0 10 -5 23 -11 29 -8 8 -5 17 10 32 24 24 40 28 20 5
-10 -13 -9 -19 12 -38 14 -12 31 -23 39 -23 8 0 24 -4 35 -9 19 -7 19 -7 3 10
-10 9 -18 22 -18 27 0 6 -8 8 -19 4 -13 -4 -20 0 -24 15 -5 21 9 28 16 8 2 -7
4 1 4 19 0 36 -19 50 -38 27 -10 -12 -15 -10 -35 11 -13 15 -24 34 -24 44 0
10 -7 24 -15 31 -9 7 -15 8 -15 2 0 -15 -58 -21 -64 -5 -6 15 27 36 39 25 5
-4 5 -1 1 6 -4 6 -13 12 -21 12 -7 0 -12 8 -10 18 1 9 0 11 -2 5 -3 -7 -13
-13 -24 -13 -14 0 -19 7 -19 25 0 20 5 24 22 22 14 -1 23 4 26 16 2 10 -3 17
-11 17 -20 0 -27 20 -15 43 9 17 -7 23 -54 19 -10 -1 -18 2 -18 7 0 5 -6 11
-13 14 -8 3 -13 -3 -13 -14 0 -18 16 -23 63 -22 6 0 9 -6 6 -13 -3 -7 8 -25
24 -38 15 -14 23 -26 17 -26 -6 0 -17 7 -24 15 -7 8 -19 15 -27 15 -9 0 -13 6
-9 15 4 10 -1 15 -17 16 -12 0 -32 2 -44 3 -28 3 -29 -2 -5 -20 25 -19 6 -31
-60 -37 -46 -4 -58 -3 -58 9 0 20 -20 17 -21 -3 0 -12 -2 -13 -6 -5 -7 17 15
42 38 42 11 0 19 5 19 11 0 5 -5 7 -11 4 -6 -4 -13 2 -16 14 -5 21 -23 30 -23
11 0 -5 -4 -10 -10 -10 -5 0 -7 7 -4 15 4 10 0 15 -12 15 -13 0 -15 -3 -7 -8
8 -5 9 -13 3 -22 -13 -21 -12 -39 1 -20 8 12 9 11 7 -5 -2 -13 -10 -19 -21
-17 -9 2 -20 -4 -24 -13 -8 -24 -25 4 -17 29 5 16 2 18 -19 14 -13 -3 -32 1
-41 7 -15 11 -13 16 16 45 21 21 26 31 15 26 -10 -3 -28 -6 -39 -6 -13 0 -18
-5 -15 -14 3 -8 -2 -16 -13 -19 -18 -4 -18 -3 2 34 11 21 24 36 29 34 5 -3 1
8 -9 24 -18 32 -40 39 -59 20 -8 -8 -17 -8 -31 0 -26 14 -35 14 -26 0z m24
-165 c0 -2 -9 -4 -21 -4 -11 0 -18 4 -14 10 5 8 35 3 35 -6z m127 -12 c6 -4
15 -20 18 -35 4 -15 14 -27 24 -27 14 0 14 -2 1 -10 -11 -7 -22 -2 -42 17 -37
36 -38 79 -1 55z m273 -69 c0 -19 -3 -24 -10 -17 -6 6 -8 18 -4 27 9 24 14 21
14 -10z m-110 -4 c0 -6 -9 -13 -20 -16 -24 -6 -25 -16 -4 -48 16 -24 15 -25
-5 -25 -14 0 -21 6 -21 19 0 11 -4 23 -10 26 -5 3 -10 14 -10 23 0 14 2 14 9
3 7 -11 11 -9 20 8 12 22 41 29 41 10z m-82 -36 c-4 -24 -38 -26 -38 -2 0 13
7 19 21 19 14 0 19 -5 17 -17z m122 -20 c-1 -18 -18 -35 -24 -24 -4 6 -4 16
-1 21 7 12 25 13 25 3z m75 -3 c-3 -5 -11 -10 -16 -10 -6 0 -7 5 -4 10 3 6 11
10 16 10 6 0 7 -4 4 -10z m55 -10 c0 -5 -5 -10 -11 -10 -5 0 -7 5 -4 10 3 6 8
10 11 10 2 0 4 -4 4 -10z m-255 -10 c3 -5 1 -10 -4 -10 -6 0 -11 5 -11 10 0 6
2 10 4 10 3 0 8 -4 11 -10z m22 -82 c-3 -8 -6 -5 -6 6 -1 11 2 17 5 13 3 -3 4
-12 1 -19z m123 13 c0 -6 -9 -9 -20 -8 -11 1 -20 5 -20 9 0 4 9 8 20 8 11 0
20 -4 20 -9z m336 -28 c-10 -10 -19 5 -10 18 6 11 8 11 12 0 2 -7 1 -15 -2
-18z m-68 -76 c2 -12 -3 -17 -17 -17 -15 0 -21 6 -21 21 0 25 33 22 38 -4z
m-295 -47 c8 0 7 -3 -2 -9 -10 -6 -10 -10 -1 -16 7 -4 13 1 17 14 7 27 23 27
23 1 0 -31 -1 -35 -11 -32 -5 1 -12 -5 -15 -13 -11 -27 -34 -17 -34 15 0 20
-5 30 -15 30 -21 0 -19 30 3 46 15 11 17 10 20 -12 2 -13 9 -24 15 -24z m360
-12 c-2 -5 -3 -19 -3 -33 0 -29 -29 -35 -50 -10 -9 10 -9 15 -1 15 6 0 11 9
11 21 0 15 5 20 23 17 12 -2 21 -6 20 -10z m-23 -87 c0 -6 -4 -13 -10 -16 -5
-3 -10 1 -10 9 0 9 5 16 10 16 6 0 10 -4 10 -9z m-75 -111 c10 -11 15 -20 11
-20 -4 0 -16 9 -28 20 -12 11 -17 20 -11 20 5 0 18 -9 28 -20z m55 0 c0 -5 -5
-10 -11 -10 -5 0 -7 5 -4 10 3 6 8 10 11 10 2 0 4 -4 4 -10z m3 -75 c-5 -13
-23 -22 -23 -11 0 15 14 35 21 31 4 -3 6 -12 2 -20z m27 -4 c0 -5 -3 -17 -6
-26 -5 -12 -9 -14 -14 -4 -5 7 -6 18 -3 26 6 15 23 18 23 4z"/>
<path d="M1040 2016 c0 -11 -8 -28 -17 -38 -16 -18 -16 -18 0 -12 12 4 17 1
17 -12 0 -16 2 -17 10 -4 6 9 6 18 0 24 -7 7 0 15 18 23 15 7 20 11 12 10 -8
-2 -20 3 -27 12 -11 14 -12 14 -13 -3z"/>
<path d="M1380 2021 c0 -5 8 -12 19 -16 10 -3 29 -14 41 -25 26 -22 41 -19 18
3 -21 21 -78 49 -78 38z"/>
<path d="M1910 2021 c0 -5 5 -13 10 -16 6 -3 10 -2 10 4 0 5 -4 13 -10 16 -5
3 -10 2 -10 -4z"/>
<path d="M1943 2000 c-9 -24 -9 -30 3 -30 8 0 11 6 8 15 -4 8 -1 15 5 15 6 0
11 7 11 15 0 25 -15 17 -27 -15z"/>
<path d="M1983 2012 c0 -12 5 -22 9 -22 11 0 10 12 -2 30 -7 12 -9 10 -7 -8z"/>
<path d="M2260 2015 c0 -8 5 -15 10 -15 6 0 10 7 10 15 0 8 -4 15 -10 15 -5 0
-10 -7 -10 -15z"/>
<path d="M2570 2015 c0 -8 7 -15 15 -15 8 0 15 7 15 15 0 8 -7 15 -15 15 -8 0
-15 -7 -15 -15z"/>
<path d="M1690 2006 c0 -8 -5 -16 -12 -18 -7 -3 -8 -7 -2 -11 5 -3 15 3 22 13
7 12 8 21 2 25 -6 3 -10 0 -10 -9z"/>
<path d="M308 2003 c7 -3 16 -2 19 1 4 3 -2 6 -13 5 -11 0 -14 -3 -6 -6z"/>
<path d="M1640 1996 c0 -8 5 -18 10 -21 6 -3 10 1 10 9 0 8 -4 18 -10 21 -5 3
-10 -1 -10 -9z"/>
<path d="M2053 2003 c-15 -6 -17 -33 -3 -33 6 0 10 6 10 14 0 8 6 17 13 19 6
3 8 5 2 5 -5 0 -16 -2 -22 -5z"/>
<path d="M480 1991 c0 -5 -3 -16 -6 -25 -4 -11 -1 -16 10 -16 9 0 21 -10 25
-22 8 -20 10 -21 16 -6 4 9 -1 29 -10 45 -10 17 -11 21 -3 11 8 -10 18 -15 21
-11 4 3 2 12 -4 20 -13 15 -49 18 -49 4z"/>
<path d="M1265 1990 c3 -5 8 -10 11 -10 2 0 4 5 4 10 0 6 -5 10 -11 10 -5 0
-7 -4 -4 -10z"/>
<path d="M1317 1979 c-4 -15 -2 -19 10 -15 8 3 17 6 19 6 2 0 4 7 4 15 0 23
-27 18 -33 -6z"/>
<path d="M2320 1985 c0 -8 7 -15 15 -15 8 0 15 -7 15 -15 0 -10 10 -15 30 -15
20 0 30 -5 30 -15 0 -8 -7 -15 -15 -15 -8 0 -15 -7 -15 -15 0 -10 10 -15 30
-15 27 0 30 3 30 30 0 20 -5 30 -15 30 -8 0 -15 7 -15 15 0 10 -10 15 -30 15
-20 0 -30 5 -30 15 0 8 -7 15 -15 15 -8 0 -15 -7 -15 -15z"/>
<path d="M2440 1985 c0 -8 7 -15 15 -15 8 0 15 -7 15 -15 0 -8 7 -15 15 -15 8
0 15 7 15 15 0 8 -7 15 -15 15 -8 0 -15 7 -15 15 0 8 -7 15 -15 15 -8 0 -15
-7 -15 -15z"/>
<path d="M2510 1984 c0 -8 10 -14 25 -14 15 0 25 6 25 14 0 8 -10 14 -25 14
-15 0 -25 -6 -25 -14z"/>
<path d="M330 1966 c0 -14 5 -26 10 -26 6 0 10 9 10 19 0 11 -4 23 -10 26 -6
4 -10 -5 -10 -19z"/>
<path d="M398 1964 c-4 -6 -4 -21 -1 -33 4 -16 11 -21 24 -18 18 5 27 -7 12
-16 -5 -2 -3 -2 4 -1 16 4 27 -13 11 -18 -20 -7 -11 -100 12 -119 22 -19 70
-14 70 7 0 20 -20 27 -21 7 0 -15 -2 -14 -11 5 -6 13 -17 21 -24 18 -10 -4
-12 7 -11 39 1 25 6 45 10 45 5 0 1 7 -7 16 -9 8 -16 19 -16 24 0 5 -9 11 -19
15 -11 3 -21 14 -23 23 -2 10 -6 13 -10 6z"/>
<path d="M1346 1955 c-4 -10 1 -15 14 -15 11 0 20 7 20 15 0 8 -6 15 -14 15
-8 0 -16 -7 -20 -15z"/>
<path d="M1542 1956 c7 -8 15 -12 17 -11 5 6 -10 25 -20 25 -5 0 -4 -6 3 -14z"/>
<path d="M1703 1953 c-4 -10 -11 -22 -17 -26 -6 -5 0 -6 14 -2 l25 6 -25 -15
-25 -15 25 -1 c23 0 26 4 25 35 0 37 -11 46 -22 18z"/>
<path d="M2070 1955 c0 -8 7 -15 15 -15 8 0 15 7 15 15 0 8 -7 15 -15 15 -8 0
-15 -7 -15 -15z"/>
<path d="M296 1952 c-3 -5 1 -9 9 -9 8 0 12 4 9 9 -3 4 -7 8 -9 8 -2 0 -6 -4
-9 -8z"/>
<path d="M775 1950 c2 -4 14 -10 26 -13 16 -4 19 -3 11 5 -14 14 -45 20 -37 8z"/>
<path d="M862 1948 c9 -7 18 -25 22 -40 5 -22 12 -28 32 -28 16 0 23 4 18 11
-4 8 0 8 15 0 28 -15 28 5 0 38 -16 19 -22 22 -29 12 -6 -11 -12 -11 -31 3
-27 19 -50 22 -27 4z"/>
<path d="M1196 1952 c-3 -6 -1 -14 5 -17 14 -9 20 -2 10 14 -6 8 -11 9 -15 3z"/>
<path d="M1637 1946 c-4 -10 -1 -13 9 -9 15 6 19 23 5 23 -5 0 -11 -7 -14 -14z"/>
<path d="M1920 1938 c-12 -22 -12 -22 6 -6 10 10 15 20 12 24 -4 3 -12 -5 -18
-18z"/>
<path d="M1410 1940 c0 -5 5 -10 11 -10 5 0 7 5 4 10 -3 6 -8 10 -11 10 -2 0
-4 -4 -4 -10z"/>
<path d="M1500 1943 c0 -14 57 -41 70 -33 9 5 9 9 1 14 -6 4 -11 4 -11 1 0 -3
-10 1 -22 9 -24 17 -38 20 -38 9z"/>
<path d="M1972 1930 c-5 -14 -7 -29 -4 -34 7 -12 24 33 18 48 -2 6 -8 0 -14
-14z"/>
<path d="M983 1933 c-18 -7 -16 -23 2 -23 8 0 15 7 15 15 0 8 -1 15 -2 14 -2
0 -9 -3 -15 -6z"/>
<path d="M1796 1931 c-4 -7 -5 -15 -2 -18 9 -9 19 4 14 18 -4 11 -6 11 -12 0z"/>
<path d="M1943 1925 c-3 -9 -3 -18 -1 -21 3 -3 8 4 11 16 6 23 -1 27 -10 5z"/>
<path d="M2003 1921 c-12 -19 -8 -31 9 -31 5 0 6 5 3 10 -6 11 8 14 17 4 9 -9
-36 -51 -49 -46 -18 6 -27 -26 -13 -43 7 -9 8 -15 2 -15 -5 0 -10 -17 -9 -37
1 -20 -4 -38 -11 -41 -14 -4 -16 -32 -2 -32 14 0 12 -33 -2 -49 -11 -11 -10
-14 0 -18 7 -3 17 -16 22 -29 12 -30 26 -31 33 -2 4 14 0 29 -10 40 -20 23
-11 33 16 18 15 -8 21 -21 22 -48 l1 -37 9 32 c12 41 28 51 46 28 12 -18 13
-18 13 2 0 22 -32 42 -38 24 -7 -21 -22 -11 -22 14 0 15 -6 25 -15 25 -9 0
-12 -6 -9 -17 5 -15 4 -16 -5 -3 -6 8 -11 22 -11 31 0 9 -7 20 -15 23 -14 5
-14 9 1 31 19 29 34 18 27 -19 -3 -15 1 -25 11 -29 19 -7 22 9 4 17 -10 3 -9
8 3 18 9 7 14 19 12 26 -3 7 4 12 16 12 12 0 21 -6 21 -12 0 -7 6 -4 12 7 6
11 16 23 21 26 5 4 7 14 4 23 -4 9 -2 16 3 16 6 0 10 9 10 20 0 11 -7 20 -15
20 -8 0 -15 -7 -15 -15 0 -8 -7 -15 -16 -15 -11 0 -14 -6 -9 -21 6 -19 4 -21
-14 -16 -16 4 -24 0 -30 -15 -6 -18 -8 -18 -20 -4 -9 10 -9 16 -3 16 7 0 9 7
5 17 -5 12 -2 15 9 11 11 -5 14 -1 10 18 -3 17 0 24 11 24 15 0 30 37 21 52
-10 15 -49 8 -61 -11z"/>
<path d="M2510 1925 c0 -8 5 -15 10 -15 6 0 10 7 10 15 0 8 -4 15 -10 15 -5 0
-10 -7 -10 -15z"/>
<path d="M485 1920 c-3 -5 -1 -10 4 -10 6 0 11 5 11 10 0 6 -2 10 -4 10 -3 0
-8 -4 -11 -10z"/>
<path d="M1850 1920 c0 -5 5 -10 11 -10 5 0 7 5 4 10 -3 6 -8 10 -11 10 -2 0
-4 -4 -4 -10z"/>
<path d="M267 1905 c-4 -8 -2 -17 3 -20 6 -4 10 3 10 14 0 25 -6 27 -13 6z"/>
<path d="M1327 1909 c7 -7 15 -10 18 -7 3 3 -2 9 -12 12 -14 6 -15 5 -6 -5z"/>
<path d="M1398 1913 c7 -3 16 -2 19 1 4 3 -2 6 -13 5 -11 0 -14 -3 -6 -6z"/>
<path d="M1630 1901 c0 -10 -7 -21 -15 -25 -20 -7 -19 -26 3 -43 16 -14 16
-14 0 -9 -23 7 -24 -10 -1 -18 9 -4 20 -2 23 5 10 15 0 50 -11 43 -5 -3 -9 0
-9 5 0 17 31 13 53 -6 14 -13 12 -6 -8 25 -31 47 -35 50 -35 23z"/>
<path d="M1165 1900 c3 -5 10 -10 16 -10 5 0 9 5 9 10 0 6 -7 10 -16 10 -8 0
-12 -4 -9 -10z"/>
<path d="M2162 1881 c1 -23 7 -31 26 -36 13 -3 32 -13 41 -22 14 -15 16 -15
19 -1 2 9 12 18 23 21 25 7 25 37 -1 37 -11 0 -20 -7 -20 -15 0 -8 -7 -15 -15
-15 -10 0 -15 10 -15 30 0 27 -3 30 -29 30 -26 0 -30 -3 -29 -29z"/>
<path d="M320 1890 c0 -5 -7 -10 -15 -10 -8 0 -15 -4 -15 -10 0 -15 19 -12 36
4 16 17 18 26 4 26 -5 0 -10 -4 -10 -10z"/>
<path d="M350 1898 c0 -2 4 -18 9 -36 6 -20 6 -32 0 -32 -5 0 -9 -11 -9 -25 0
-16 -6 -25 -15 -25 -8 0 -15 -5 -15 -11 0 -6 7 -9 15 -6 8 4 17 2 20 -2 3 -5
-2 -12 -11 -15 -10 -4 -13 -13 -9 -27 5 -14 3 -19 -3 -15 -6 3 -13 0 -15 -6
-4 -10 -6 -10 -6 0 -1 6 -5 12 -11 12 -15 0 -11 -52 5 -74 14 -18 16 -18 33
-3 10 9 26 17 34 17 27 0 36 40 15 62 -8 7 -17 31 -21 52 -6 33 -5 38 13 43
24 6 26 14 9 31 -7 7 -13 22 -13 34 0 12 -6 23 -12 25 -7 3 -13 3 -13 1z"/>
<path d="M790 1890 c0 -5 5 -10 11 -10 5 0 7 5 4 10 -3 6 -8 10 -11 10 -2 0
-4 -4 -4 -10z"/>
<path d="M1266 1884 c-8 -22 11 -44 38 -43 20 2 20 2 -1 6 -22 4 -27 13 -24
41 3 17 -6 15 -13 -4z"/>
<path d="M1910 1890 c0 -5 5 -10 11 -10 5 0 7 5 4 10 -3 6 -8 10 -11 10 -2 0
-4 -4 -4 -10z"/>
<path d="M1420 1881 c0 -6 4 -13 10 -16 6 -3 7 1 4 9 -7 18 -14 21 -14 7z"/>
<path d="M950 1860 c0 -5 5 -10 11 -10 5 0 7 5 4 10 -3 6 -8 10 -11 10 -2 0
-4 -4 -4 -10z"/>
<path d="M1200 1860 c0 -5 5 -10 10 -10 6 0 10 5 10 10 0 6 -4 10 -10 10 -5 0
-10 -4 -10 -10z"/>
<path d="M1816 1854 c-4 -9 -4 -19 -1 -22 3 -3 5 0 5 6 0 7 7 12 15 12 8 0 15
5 15 10 0 16 -27 11 -34 -6z"/>
<path d="M2313 1855 c0 -10 6 -14 14 -10 8 3 17 5 19 5 2 0 4 5 4 10 0 6 -8
10 -18 10 -10 0 -19 -7 -19 -15z"/>
<path d="M2480 1860 c0 -5 5 -10 10 -10 6 0 10 5 10 10 0 6 -4 10 -10 10 -5 0
-10 -4 -10 -10z"/>
<path d="M2540 1810 c0 -47 -3 -60 -15 -60 -8 0 -15 -4 -15 -10 0 -5 6 -10 13
-10 8 0 7 -4 -3 -10 -12 -8 -13 -11 -1 -19 9 -6 10 -11 2 -15 -6 -4 -11 -38
-12 -79 0 -40 -3 -66 -6 -59 -10 25 -33 12 -33 -18 l0 -30 65 0 65 0 0 124 c0
114 -2 124 -19 129 -28 7 -28 87 0 94 30 8 22 23 -11 23 l-30 0 0 -60z"/>
<path d="M1400 1840 c0 -5 5 -10 11 -10 5 0 7 5 4 10 -3 6 -8 10 -11 10 -2 0
-4 -4 -4 -10z"/>
<path d="M1860 1843 c-1 -7 -4 -17 -5 -23 -1 -5 -3 -19 -4 -29 0 -11 -8 -26
-16 -35 -17 -17 -20 -36 -4 -36 5 0 7 -5 3 -12 -5 -7 -3 -8 5 -4 7 5 10 14 7
21 -2 7 2 23 11 34 8 12 12 25 9 28 -3 3 2 12 12 20 9 8 12 12 5 9 -7 -4 -13
3 -16 16 -2 13 -5 17 -7 11z"/>
<path d="M885 1830 c4 -6 11 -8 16 -5 14 9 11 15 -7 15 -8 0 -12 -5 -9 -10z"/>
<path d="M920 1830 c0 -5 5 -10 10 -10 6 0 10 5 10 10 0 6 -4 10 -10 10 -5 0
-10 -4 -10 -10z"/>
<path d="M950 1830 c0 -5 5 -10 10 -10 6 0 10 5 10 10 0 6 -4 10 -10 10 -5 0
-10 -4 -10 -10z"/>
<path d="M1710 1830 c12 -8 12 -11 -3 -28 -35 -39 -19 -57 50 -55 6 0 9 -6 6
-13 -3 -9 -17 -13 -39 -11 -32 4 -55 -15 -34 -28 6 -4 10 -1 10 4 0 15 40 14
40 -1 0 -7 8 -1 18 14 9 15 23 27 31 25 8 -1 16 4 18 11 3 7 -1 10 -11 6 -9
-3 -16 -1 -16 5 0 7 -8 11 -17 9 -10 -2 -18 4 -19 15 -1 11 0 12 3 2 3 -11 7
-12 17 -2 11 10 7 16 -20 34 -18 13 -37 23 -41 23 -4 0 -1 -4 7 -10z"/>
<path d="M2410 1831 c0 -5 7 -11 15 -15 9 -3 15 0 15 9 0 8 -7 15 -15 15 -8 0
-15 -4 -15 -9z"/>
<path d="M2450 1830 c0 -5 5 -10 10 -10 6 0 10 5 10 10 0 6 -4 10 -10 10 -5 0
-10 -4 -10 -10z"/>
<path d="M2475 1810 c-6 -29 -8 -30 -66 -30 -44 0 -59 4 -59 14 0 15 -27 25
-47 19 -18 -7 -16 -33 3 -33 8 0 12 -5 9 -11 -4 -6 2 -13 14 -16 15 -4 21 -13
21 -34 0 -26 4 -29 30 -29 20 0 30 5 30 15 0 8 7 15 15 15 8 0 15 -7 15 -15 0
-10 11 -15 35 -15 26 0 33 3 29 15 -4 8 -12 15 -20 15 -8 0 -14 7 -14 15 0 8
7 15 15 15 11 0 15 12 15 45 0 51 -15 60 -25 15z m-45 -69 c0 -9 -24 -21 -41
-21 -5 0 -9 7 -9 15 0 9 9 15 25 15 14 0 25 -4 25 -9z"/>
<path d="M293 1805 c0 -8 4 -12 9 -9 5 3 6 10 3 15 -9 13 -12 11 -12 -6z"/>
<path d="M1385 1810 c-4 -6 -5 -12 -4 -13 2 -1 14 -10 26 -21 22 -18 22 -18
14 10 -8 30 -25 42 -36 24z"/>
<path d="M1807 1803 c-13 -12 -7 -23 11 -22 10 0 12 3 4 6 -6 2 -10 9 -6 14 6
10 0 12 -9 2z"/>
<path d="M1165 1779 c-4 -11 -5 -21 -3 -22 1 -1 14 -8 26 -15 13 -7 26 -11 29
-8 3 3 -2 8 -11 12 -9 3 -16 17 -16 30 0 29 -16 32 -25 3z"/>
<path d="M1439 1777 c6 -8 7 -18 3 -22 -4 -5 -1 -5 6 -1 10 6 10 11 1 22 -6 8
-14 14 -16 14 -3 0 0 -6 6 -13z"/>
<path d="M1656 1775 c4 -8 8 -15 10 -15 2 0 4 7 4 15 0 8 -4 15 -10 15 -5 0
-7 -7 -4 -15z"/>
<path d="M1880 1780 c0 -5 5 -10 10 -10 6 0 10 5 10 10 0 6 -4 10 -10 10 -5 0
-10 -4 -10 -10z"/>
<path d="M2114 1775 c-3 -8 -4 -20 -2 -27 3 -7 7 -1 10 15 6 29 1 36 -8 12z"/>
<path d="M1207 1767 c3 -5 11 -6 19 -3 7 3 16 1 19 -4 3 -6 15 -15 27 -21 15
-8 19 -8 14 0 -4 6 -2 11 4 11 6 0 16 -13 21 -30 6 -16 15 -30 21 -30 5 0 8 3
6 8 -2 4 -10 24 -18 45 -15 40 -24 46 -34 22 -3 -8 -10 -15 -17 -15 -6 0 -9 6
-6 13 4 10 -5 13 -28 13 -18 0 -31 -4 -28 -9z"/>
<path d="M220 1755 c-10 -12 -9 -16 5 -21 17 -7 38 13 29 28 -8 12 -20 10 -34
-7z"/>
<path d="M540 1760 c0 -5 5 -10 10 -10 6 0 10 5 10 10 0 6 -4 10 -10 10 -5 0
-10 -4 -10 -10z"/>
<path d="M266 1741 c-4 -7 -5 -15 -2 -18 9 -9 19 4 14 18 -4 11 -6 11 -12 0z"/>
<path d="M2197 1743 c-12 -11 -8 -23 8 -23 8 0 15 7 15 15 0 16 -12 20 -23 8z"/>
<path d="M2282 1718 c2 -18 8 -33 13 -33 6 0 11 15 13 33 3 24 -1 32 -13 32
-12 0 -16 -8 -13 -32z"/>
<path d="M1226 1724 c-8 -20 -4 -25 11 -16 7 4 9 13 4 21 -6 10 -10 9 -15 -5z"/>
<path d="M123 1703 c-28 -19 -29 -33 -3 -33 11 0 20 -4 20 -10 0 -5 7 -10 16
-10 9 0 18 -9 21 -20 3 -11 11 -20 18 -20 7 0 18 -7 25 -15 20 -24 43 -19 34
8 -4 12 -7 28 -7 35 0 7 -6 11 -14 8 -7 -3 -13 -1 -13 5 0 6 -5 7 -10 4 -12
-7 -49 33 -50 53 0 16 -10 15 -37 -5z"/>
<path d="M470 1710 c0 -5 7 -10 16 -10 8 0 13 -4 9 -10 -7 -11 38 -42 56 -38
8 2 13 -3 12 -9 -5 -21 24 -15 30 6 6 25 -11 41 -44 41 -15 0 -29 7 -33 15 -6
17 -46 21 -46 5z"/>
<path d="M1410 1714 c0 -1 6 -7 14 -13 10 -9 15 -8 19 2 3 8 -3 13 -14 13 -11
0 -19 -1 -19 -2z"/>
<path d="M2096 1695 c-3 -8 -1 -15 4 -15 6 0 10 7 10 15 0 8 -2 15 -4 15 -2 0
-6 -7 -10 -15z"/>
<path d="M1650 1690 c-9 -6 -10 -10 -3 -10 6 0 15 5 18 10 8 12 4 12 -15 0z"/>
<path d="M1460 1677 c0 -22 -23 -37 -40 -27 -9 5 -19 5 -27 -2 -9 -7 -17 -5
-28 6 -19 19 -31 20 -41 4 -5 -7 -2 -9 8 -5 9 3 21 0 27 -6 16 -16 14 -47 -3
-47 -9 0 -12 -7 -9 -20 6 -24 31 -45 41 -36 4 4 -1 12 -11 18 -17 9 -17 11 3
28 12 11 19 23 17 27 -3 5 -2 15 4 23 6 10 9 11 9 3 0 -7 6 -13 14 -13 19 0
26 -23 17 -57 -8 -29 5 -73 21 -73 5 0 6 6 1 13 -11 17 -12 77 -2 77 5 0 9 -5
9 -11 0 -12 29 -38 42 -39 3 0 5 12 3 26 -3 27 -19 44 -43 44 -13 0 -11 13 5
56 2 7 0 15 -6 19 -6 3 -11 0 -11 -8z"/>
<path d="M1601 1676 c-8 -10 -9 -16 -1 -21 13 -8 30 3 30 21 0 18 -14 18 -29
0z"/>
<path d="M2120 1675 c-7 -9 -10 -18 -7 -21 3 -3 10 4 17 15 13 25 8 27 -10 6z"/>
<path d="M1260 1670 c-9 -6 -10 -10 -3 -10 6 0 15 5 18 10 8 12 4 12 -15 0z"/>
<path d="M1496 1664 c-4 -9 -4 -19 -1 -22 2 -3 7 3 11 12 4 9 4 19 1 22 -2 3
-7 -3 -11 -12z"/>
<path d="M1696 1658 c10 -14 21 -24 23 -22 3 3 -6 15 -18 27 l-24 22 19 -27z"/>
<path d="M1817 1645 c-4 -8 -2 -17 3 -20 6 -4 10 3 10 14 0 25 -6 27 -13 6z"/>
<path d="M2185 1650 c3 -5 8 -10 11 -10 2 0 4 5 4 10 0 6 -5 10 -11 10 -5 0
-7 -4 -4 -10z"/>
<path d="M2210 1651 c0 -6 4 -13 10 -16 6 -3 7 1 4 9 -7 18 -14 21 -14 7z"/>
<path d="M2385 1651 c-13 -12 -2 -21 25 -21 23 0 30 -4 30 -20 0 -11 7 -20 15
-20 10 0 15 10 15 34 0 34 -1 35 -40 33 -23 -1 -43 -3 -45 -6z"/>
<path d="M1645 1630 c-3 -5 -1 -10 4 -10 6 0 11 5 11 10 0 6 -2 10 -4 10 -3 0
-8 -4 -11 -10z"/>
<path d="M1585 1620 c3 -5 8 -10 11 -10 2 0 4 5 4 10 0 6 -5 10 -11 10 -5 0
-7 -4 -4 -10z"/>
<path d="M1898 1618 c7 -9 12 -29 11 -44 -2 -16 1 -39 5 -51 5 -15 3 -23 -5
-23 -7 0 -9 -10 -5 -30 4 -22 2 -30 -9 -30 -8 0 -15 -9 -15 -20 0 -30 16 -24
39 16 12 19 17 32 11 29 -5 -3 -10 3 -10 14 0 12 4 21 9 21 11 0 23 102 13
111 -4 4 -18 10 -32 14 -22 7 -23 6 -12 -7z"/>
<path d="M596 1598 c-12 -45 -7 -58 19 -58 14 0 25 -4 25 -10 0 -5 4 -10 9
-10 5 0 0 19 -12 43 -12 23 -20 45 -19 50 1 4 -2 7 -7 7 -5 0 -11 -10 -15 -22z"/>
<path d="M2350 1610 c0 -5 7 -10 15 -10 8 0 15 5 15 10 0 6 -7 10 -15 10 -8 0
-15 -4 -15 -10z"/>
<path d="M1851 1594 c0 -11 3 -14 6 -6 3 7 2 16 -1 19 -3 4 -6 -2 -5 -13z"/>
<path d="M2060 1600 c0 -5 5 -10 11 -10 5 0 7 5 4 10 -3 6 -8 10 -11 10 -2 0
-4 -4 -4 -10z"/>
<path d="M297 1583 c4 -10 16 -30 27 -46 17 -23 21 -25 29 -12 5 11 1 25 -15
45 -26 32 -51 40 -41 13z"/>
<path d="M2128 1578 c-2 -15 -9 -22 -21 -22 -15 2 -16 -1 -5 -14 10 -12 10
-16 1 -19 -7 -3 -13 -9 -13 -14 0 -4 7 -6 15 -3 17 7 19 -4 5 -26 -7 -11 -12
-12 -21 -3 -6 6 -18 9 -27 5 -11 -4 -14 -1 -10 9 4 11 -3 14 -33 11 -25 -3
-39 -9 -39 -18 0 -8 5 -14 10 -14 6 0 10 -4 10 -10 0 -5 -6 -7 -14 -4 -7 3
-16 -2 -19 -10 -4 -10 -1 -13 9 -9 9 3 14 -2 14 -15 0 -12 9 -27 19 -34 13 -9
17 -19 11 -28 -9 -15 9 -62 21 -54 10 6 49 -31 49 -46 0 -14 17 -13 26 2 5 7
3 8 -6 3 -10 -6 -12 -4 -7 7 4 11 -1 18 -15 21 -11 3 -18 9 -15 14 3 4 -1 14
-9 21 -9 8 -14 9 -14 2 0 -6 -5 -8 -10 -5 -7 4 -7 12 0 24 6 12 6 30 0 50 -9
33 -4 61 11 61 5 0 9 -9 9 -20 0 -11 7 -20 15 -20 17 0 20 16 5 25 -5 3 -10
14 -10 23 1 16 1 16 11 0 5 -10 16 -15 24 -11 9 3 21 1 28 -5 8 -7 15 -6 22 2
12 13 17 65 8 86 -3 8 -5 25 -4 38 2 14 -3 22 -13 22 -8 0 -16 -10 -18 -22z
m22 -58 c0 -5 -7 -10 -15 -10 -8 0 -15 5 -15 10 0 6 7 10 15 10 8 0 15 -4 15
-10z m0 -45 c0 -9 -6 -12 -16 -8 -13 5 -13 7 -2 14 17 11 18 11 18 -6z"/>
<path d="M2263 1588 c-4 -7 -8 -23 -8 -35 -1 -19 5 -23 27 -23 18 0 28 5 28
15 0 8 -7 15 -16 15 -11 0 -15 6 -11 20 6 22 -7 27 -20 8z"/>
<path d="M167 1576 c-4 -10 2 -16 16 -19 21 -3 20 -4 -5 -15 -35 -14 -36 -32
-4 -32 19 0 25 -6 28 -27 2 -14 9 -28 16 -31 9 -3 12 6 9 32 -2 20 -7 39 -10
43 -12 12 -7 22 8 17 23 -9 19 23 -4 36 -27 14 -48 13 -54 -4z"/>
<path d="M1730 1580 c0 -5 5 -10 10 -10 6 0 10 5 10 10 0 6 -4 10 -10 10 -5 0
-10 -4 -10 -10z"/>
<path d="M1558 1551 c-4 -24 -1 -27 19 -23 28 5 31 38 4 45 -15 3 -20 -2 -23
-22z"/>
<path d="M1610 1560 c0 -5 5 -10 11 -10 5 0 7 5 4 10 -3 6 -8 10 -11 10 -2 0
-4 -4 -4 -10z"/>
<path d="M2363 1563 c-7 -3 -13 -11 -13 -19 0 -8 -7 -14 -15 -14 -8 0 -15 -7
-15 -15 0 -8 7 -15 15 -15 10 0 15 -10 15 -30 l0 -30 80 0 c64 0 80 3 80 15 0
8 -9 15 -20 15 -11 0 -20 7 -20 15 0 8 -7 15 -15 15 -8 0 -15 7 -15 15 0 10
-10 15 -29 15 -21 0 -31 5 -33 18 -2 11 -9 17 -15 15z m17 -48 c0 -8 -7 -15
-15 -15 -8 0 -15 7 -15 15 0 8 7 15 15 15 8 0 15 -7 15 -15z"/>
<path d="M1463 1540 c-1 -14 4 -20 19 -20 20 0 21 1 3 20 -10 11 -19 20 -19
20 -1 0 -2 -9 -3 -20z"/>
<path d="M1696 1545 c-3 -9 0 -15 9 -15 9 0 12 6 9 15 -4 8 -7 15 -9 15 -2 0
-5 -7 -9 -15z"/>
<path d="M1835 1542 c-3 -8 -3 -17 0 -20 3 -3 5 0 5 6 0 6 10 12 23 14 l22 3
-22 7 c-15 4 -24 1 -28 -10z"/>
<path d="M1662 1520 c7 -11 16 -20 19 -20 4 0 9 -10 12 -22 4 -12 9 -19 13
-15 10 10 -13 50 -37 65 -18 11 -18 11 -7 -8z"/>
<path d="M1748 1519 c-17 -18 -17 -19 3 -29 29 -16 59 -21 59 -9 0 5 -9 9 -19
9 -24 0 -38 20 -21 30 7 4 8 10 4 12 -5 3 -17 -3 -26 -13z"/>
<path d="M1980 1519 c0 -5 5 -7 10 -4 6 3 10 8 10 11 0 2 -4 4 -10 4 -5 0 -10
-5 -10 -11z"/>
<path d="M1387 1506 c-4 -9 -2 -18 3 -21 6 -4 10 2 11 12 0 16 1 16 10 -2 8
-19 9 -19 6 -1 -3 24 -23 32 -30 12z"/>
<path d="M1540 1504 c0 -14 59 -81 60 -67 0 6 -13 27 -30 45 -16 18 -30 28
-30 22z"/>
<path d="M1620 1500 c-9 -6 -10 -10 -3 -10 6 0 15 5 18 10 8 12 4 12 -15 0z"/>
<path d="M1466 1475 c4 -8 8 -15 10 -15 2 0 4 7 4 15 0 8 -4 15 -10 15 -5 0
-7 -7 -4 -15z"/>
<path d="M1720 1460 c0 -11 4 -20 9 -20 5 0 7 9 4 20 -3 11 -7 20 -9 20 -2 0
-4 -9 -4 -20z"/>
<path d="M1650 1463 c8 -3 21 -10 28 -16 9 -7 11 -6 6 7 -3 9 -16 16 -28 15
-14 0 -16 -2 -6 -6z"/>
<path d="M1780 1451 c0 -5 7 -12 16 -15 14 -5 15 -4 4 9 -14 17 -20 19 -20 6z"/>
<path d="M1560 1430 c0 -5 5 -10 11 -10 5 0 7 5 4 10 -3 6 -8 10 -11 10 -2 0
-4 -4 -4 -10z"/>
<path d="M2290 1436 c0 -2 8 -10 18 -17 15 -13 16 -12 3 4 -13 16 -21 21 -21
13z"/>
<path d="M1700 1410 c0 -5 5 -10 11 -10 5 0 7 5 4 10 -3 6 -8 10 -11 10 -2 0
-4 -4 -4 -10z"/>
<path d="M1762 1400 c0 -14 2 -19 5 -12 2 6 2 18 0 25 -3 6 -5 1 -5 -13z"/>
<path d="M1781 1394 c0 -11 3 -14 6 -6 3 7 2 16 -1 19 -3 4 -6 -2 -5 -13z"/>
<path d="M1840 1406 c0 -2 8 -10 18 -17 15 -13 16 -12 3 4 -13 16 -21 21 -21
13z"/>
<path d="M1950 1390 c0 -11 2 -20 4 -20 2 0 13 -3 23 -6 16 -6 16 -5 -2 9 -11
9 -15 17 -7 17 17 0 15 20 -3 20 -8 0 -15 -9 -15 -20z"/>
<path d="M2387 1403 c-12 -11 -8 -23 8 -23 8 0 15 7 15 15 0 16 -12 20 -23 8z"/>
<path d="M1631 1395 c-1 -6 4 -16 11 -23 9 -9 9 -15 0 -24 -18 -18 -14 -35 11
-43 13 -4 17 -8 10 -12 -18 -7 -16 -26 2 -19 21 8 19 3 -10 -28 -14 -15 -29
-25 -33 -22 -5 3 -16 -4 -25 -15 -16 -18 -16 -19 9 -19 14 0 24 -5 22 -12 -1
-7 3 -23 10 -36 7 -12 10 -27 7 -32 -3 -6 1 -10 9 -10 9 0 13 -6 10 -14 -3 -9
5 -15 26 -20 18 -3 29 -10 25 -16 -7 -12 12 -40 26 -40 5 0 6 8 2 18 -5 14 -3
15 8 5 19 -19 29 -16 29 9 0 12 3 18 8 14 4 -4 7 -18 7 -29 0 -15 7 -23 23
-25 17 -3 22 2 22 19 0 18 2 19 15 9 8 -7 13 -22 11 -34 -2 -11 -1 -15 1 -8 6
16 23 6 23 -14 0 -8 -9 -14 -20 -14 -16 0 -20 -7 -20 -30 0 -20 -5 -30 -15
-30 -8 0 -15 -4 -15 -10 0 -5 18 -10 40 -10 27 0 43 -5 46 -15 7 -17 34 -21
34 -5 0 6 -7 10 -15 10 -8 0 -15 7 -15 15 0 8 -7 15 -15 15 -8 0 -15 7 -15 15
0 17 4 18 28 6 9 -5 30 -15 45 -22 16 -7 26 -18 23 -26 -6 -13 6 -18 17 -7 9
9 -12 46 -23 39 -5 -3 -14 4 -20 15 -8 14 -17 19 -30 15 -10 -3 -22 0 -26 7
-4 6 -2 14 4 16 7 2 12 10 12 18 0 17 14 18 40 4 16 -8 18 -8 14 5 -4 8 -12
15 -19 15 -7 0 -18 14 -25 30 -7 17 -19 30 -26 30 -8 0 -14 9 -14 20 0 14 7
20 22 20 12 0 19 -3 16 -6 -3 -3 4 -17 17 -31 51 -56 56 -65 58 -92 1 -15 8
-28 15 -28 15 0 16 13 1 23 -6 3 -9 18 -6 31 3 14 -2 37 -9 52 -10 18 -14 21
-14 9 0 -10 -3 -18 -8 -18 -11 0 -46 69 -39 77 4 3 7 1 7 -5 0 -7 7 -12 15
-12 8 0 15 5 15 10 0 6 -7 11 -15 11 -8 1 -19 3 -25 4 -5 1 -16 3 -22 4 -8 1
-9 4 -3 9 11 8 36 72 28 72 -9 0 -33 -29 -33 -41 0 -7 -6 -5 -13 6 -10 13 -16
15 -21 6 -10 -16 -26 -4 -20 14 4 8 10 12 15 9 5 -3 9 2 9 11 0 9 -4 14 -9 11
-10 -7 -27 52 -18 61 13 13 45 -11 55 -40 5 -17 10 -25 11 -16 1 12 8 15 25
12 33 -7 39 -27 15 -49 -10 -9 -19 -22 -19 -28 1 -6 9 -1 19 12 11 12 24 22
31 22 6 0 8 6 4 13 -4 6 5 1 20 -13 l28 -25 -18 38 c-13 28 -23 37 -38 35 -13
-2 -22 3 -22 12 -1 8 -2 22 -3 30 -1 13 -3 13 -10 1 -5 -8 -7 -21 -3 -29 3
-10 1 -13 -7 -8 -6 4 -9 16 -6 27 5 14 2 17 -8 13 -8 -3 -18 -1 -22 5 -9 15
-38 14 -60 -3 -16 -12 -17 -18 -7 -40 6 -14 7 -28 2 -31 -5 -3 -7 -14 -5 -25
3 -18 1 -19 -18 -9 -36 19 -77 70 -89 112 -10 33 -13 37 -23 23 -14 -18 -31
-21 -40 -6 -11 17 14 38 37 32 14 -3 19 -1 14 6 -4 7 -14 12 -22 12 -8 0 -14
7 -14 16 0 13 -3 14 -14 5 -11 -9 -15 -9 -19 1 -3 7 -6 8 -6 3z m84 -125 c3
-6 -1 -7 -9 -4 -18 7 -21 14 -7 14 6 0 13 -4 16 -10z m20 -30 c3 -5 1 -10 -4
-10 -6 0 -11 5 -11 10 0 6 2 10 4 10 3 0 8 -4 11 -10z m115 -100 c0 -23 -25
-27 -46 -6 -11 11 -11 16 -1 19 28 12 47 7 47 -13z m-101 -36 c1 -7 -8 -14
-19 -17 -13 -3 -20 0 -20 9 0 8 5 14 10 14 6 0 10 10 11 23 0 21 1 21 9 2 5
-11 9 -25 9 -31z m25 31 c3 -8 1 -15 -4 -15 -6 0 -10 7 -10 15 0 8 2 15 4 15
2 0 6 -7 10 -15z"/>
<path d="M2100 1359 c0 -24 23 -21 28 4 2 10 -3 17 -12 17 -10 0 -16 -9 -16
-21z"/>
<path d="M2238 1355 c-3 -14 -1 -25 3 -25 5 0 9 11 9 25 0 14 -2 25 -4 25 -2
0 -6 -11 -8 -25z"/>
<path d="M900 1359 c0 -14 25 -39 39 -39 6 0 11 -13 11 -30 0 -16 5 -30 10
-30 6 0 10 -8 11 -17 0 -12 5 -8 14 12 19 41 18 55 -2 56 -16 0 -16 1 -2 7 12
5 14 13 8 30 -10 27 -18 28 -35 5 -13 -17 -13 -17 -14 0 0 18 -40 25 -40 6z"/>
<path d="M1726 1361 c-4 -7 -5 -15 -2 -18 9 -9 19 4 14 18 -4 11 -6 11 -12 0z"/>
<path d="M2160 1355 c0 -8 2 -15 4 -15 2 0 6 7 10 15 3 8 1 15 -4 15 -6 0 -10
-7 -10 -15z"/>
<path d="M2476 1344 c5 -20 2 -26 -15 -31 -34 -9 -26 -33 12 -33 31 0 33 1 31
38 -3 53 -3 52 -19 52 -11 0 -14 -7 -9 -26z"/>
<path d="M1890 1356 c0 -2 7 -7 16 -10 8 -3 12 -2 9 4 -6 10 -25 14 -25 6z"/>
<path d="M2312 1346 c-33 -19 -38 -26 -16 -26 11 0 25 9 32 20 7 11 11 20 10
19 -2 -1 -13 -7 -26 -13z"/>
<path d="M1762 1324 c2 -14 8 -30 14 -35 9 -7 11 -5 7 9 -2 11 0 23 6 26 6 4
11 12 11 19 0 6 -7 2 -15 -9 -13 -16 -14 -16 -9 -1 3 9 1 17 -5 17 -6 0 -10
-12 -9 -26z"/>
<path d="M1940 1346 c0 -2 7 -7 16 -10 8 -3 12 -2 9 4 -6 10 -25 14 -25 6z"/>
<path d="M1850 1329 c0 -5 5 -7 10 -4 6 3 10 8 10 11 0 2 -4 4 -10 4 -5 0 -10
-5 -10 -11z"/>
<path d="M1340 1310 c-11 -7 -11 -11 1 -26 13 -16 12 -17 -4 -11 -13 5 -17 3
-14 -5 2 -7 12 -12 21 -12 9 1 16 -4 16 -12 0 -8 5 -14 10 -14 7 0 7 8 -1 22
-9 16 -9 23 0 26 15 5 14 29 -2 35 -8 3 -20 1 -27 -3z"/>
<path d="M2363 1313 c-18 -7 -17 -63 1 -63 20 0 24 10 17 41 -4 15 -11 24 -18
22z"/>
<path d="M2000 1296 c0 -2 7 -7 16 -10 8 -3 12 -2 9 4 -6 10 -25 14 -25 6z"/>
<path d="M2282 1268 c7 -19 35 -21 35 -3 0 8 -9 15 -19 15 -11 0 -18 -5 -16
-12z"/>
<path d="M2570 1236 c0 -7 -9 -16 -21 -19 -12 -3 -18 -10 -14 -16 9 -16 35
-13 35 4 0 8 7 15 15 15 8 0 15 7 15 15 0 8 -7 15 -15 15 -8 0 -15 -6 -15 -14z"/>
<path d="M2070 1222 c0 -12 19 -26 26 -19 2 2 -2 10 -11 17 -9 8 -15 8 -15 2z"/>
<path d="M1510 1205 c0 -8 5 -15 10 -15 6 0 10 7 10 15 0 8 -4 15 -10 15 -5 0
-10 -7 -10 -15z"/>
<path d="M2130 1205 c0 -10 10 -15 30 -15 20 0 30 5 30 15 0 10 -10 15 -30 15
-20 0 -30 -5 -30 -15z"/>
<path d="M2380 1175 c0 -8 7 -15 15 -15 8 0 15 7 15 15 0 8 -7 15 -15 15 -8 0
-15 -7 -15 -15z"/>
<path d="M2440 1175 c0 -8 7 -15 15 -15 8 0 15 7 15 15 0 8 -7 15 -15 15 -8 0
-15 -7 -15 -15z"/>
<path d="M2035 1150 c-3 -5 -3 -14 0 -20 3 -5 -1 -10 -9 -10 -9 0 -16 -4 -16
-10 0 -14 27 -12 33 3 4 9 8 8 17 -3 10 -13 11 -13 6 2 -3 10 -1 20 4 23 6 4
10 11 10 16 0 6 -7 3 -16 -5 -20 -20 -28 -20 -20 -1 6 17 0 20 -9 5z"/>
<path d="M2130 1145 c0 -8 7 -15 15 -15 8 0 15 7 15 15 0 8 -7 15 -15 15 -8 0
-15 -7 -15 -15z"/>
<path d="M2540 1140 c0 -24 15 -27 24 -4 9 22 8 24 -9 24 -8 0 -15 -9 -15 -20z"/>
<path d="M2090 1130 c0 -5 5 -10 11 -10 5 0 7 5 4 10 -3 6 -8 10 -11 10 -2 0
-4 -4 -4 -10z"/>
<path d="M1420 1116 c0 -8 5 -18 10 -21 6 -3 10 1 10 9 0 8 -4 18 -10 21 -5 3
-10 -1 -10 -9z"/>
<path d="M1230 1110 c0 -5 5 -10 10 -10 6 0 10 5 10 10 0 6 -4 10 -10 10 -5 0
-10 -4 -10 -10z"/>
<path d="M1980 1110 c0 -5 5 -10 11 -10 5 0 7 5 4 10 -3 6 -8 10 -11 10 -2 0
-4 -4 -4 -10z"/>
<path d="M1600 1084 c0 -3 5 -14 11 -25 10 -20 10 -20 -15 -4 -14 9 -30 14
-37 10 -8 -6 -8 -10 1 -15 10 -6 6 -15 -13 -33 -15 -13 -27 -28 -27 -33 0 -5
5 -2 10 6 8 13 10 12 10 -2 0 -10 5 -18 10 -18 6 0 10 8 11 18 0 14 2 14 7 2
10 -22 32 -23 32 -2 0 14 8 19 31 20 42 1 79 -14 79 -32 0 -8 4 -17 9 -20 5
-3 9 5 9 19 0 13 -7 26 -15 29 -8 3 -11 10 -8 16 3 5 1 10 -5 10 -6 0 -8 5 -4
12 5 8 2 9 -12 4 -38 -16 -54 -18 -54 -8 0 6 8 13 18 15 16 4 16 5 0 6 -10 0
-18 8 -18 16 0 8 -7 15 -15 15 -8 0 -15 -3 -15 -6z"/>
<path d="M2070 1071 c0 -5 -9 -11 -20 -14 -13 -3 -20 -13 -19 -29 0 -12 3 -17
6 -10 2 6 11 12 19 12 8 0 14 6 14 14 0 8 8 16 18 18 16 3 16 4 0 10 -10 4
-18 4 -18 -1z"/>
<path d="M1935 1020 c3 -5 8 -10 11 -10 2 0 4 5 4 10 0 6 -5 10 -11 10 -5 0
-7 -4 -4 -10z"/>
<path d="M2023 976 c14 -31 19 -32 34 -6 10 14 10 21 1 26 -7 4 -14 2 -16 -5
-3 -9 -7 -9 -17 -1 -12 10 -12 7 -2 -14z"/>
<path d="M2533 981 c-10 -16 -9 -18 7 -14 21 6 36 33 17 33 -7 0 -18 -9 -24
-19z"/>
<path d="M2076 973 c-12 -12 -6 -33 9 -33 10 0 15 -10 15 -30 0 -20 5 -30 15
-30 10 0 15 10 15 30 0 20 -5 30 -15 30 -8 0 -15 6 -15 14 0 17 -14 28 -24 19z"/>
<path d="M1380 955 c0 -8 7 -15 15 -15 8 0 15 7 15 15 0 8 -7 15 -15 15 -8 0
-15 -7 -15 -15z"/>
<path d="M1618 946 c-22 -16 -23 -36 -3 -36 8 0 15 7 15 15 0 8 7 15 15 15 8
0 15 5 15 10 0 14 -22 12 -42 -4z"/>
<path d="M1662 928 c-8 -29 -6 -36 17 -54 44 -37 70 -8 31 34 -11 12 -20 28
-20 37 0 27 -19 16 -28 -17z"/>
<path d="M1770 956 c0 -3 9 -10 20 -16 11 -6 20 -8 20 -6 0 3 -9 10 -20 16
-11 6 -20 8 -20 6z"/>
<path d="M2010 916 c0 -7 9 -16 20 -19 11 -3 20 -4 20 -3 0 1 -9 9 -20 19 -15
13 -20 14 -20 3z"/>
<path d="M1479 904 c-10 -13 -10 -17 1 -24 19 -12 5 -40 -20 -40 -20 0 -20 -1
-6 -16 9 -8 16 -22 16 -30 0 -12 4 -12 20 -4 11 6 20 20 20 30 0 20 17 25 63
22 9 -1 17 5 17 12 0 8 3 21 6 30 4 10 1 16 -9 16 -8 0 -17 -7 -21 -15 -8 -21
-20 -19 -48 10 -23 23 -27 24 -39 9z"/>
<path d="M1520 909 c0 -5 5 -7 10 -4 6 3 10 8 10 11 0 2 -4 4 -10 4 -5 0 -10
-5 -10 -11z"/>
<path d="M2230 896 c0 -7 -9 -16 -20 -19 -11 -3 -20 -13 -20 -22 0 -12 7 -15
27 -13 22 2 29 10 34 36 5 24 3 32 -7 32 -8 0 -14 -6 -14 -14z"/>
<path d="M2281 900 c-10 -5 -8 -9 4 -14 23 -8 35 -8 35 3 0 13 -25 20 -39 11z"/>
<path d="M2350 895 c0 -8 7 -15 15 -15 8 0 15 7 15 15 0 8 -7 15 -15 15 -8 0
-15 -7 -15 -15z"/>
<path d="M2530 895 c0 -8 7 -15 15 -15 8 0 15 7 15 15 0 8 -7 15 -15 15 -8 0
-15 -7 -15 -15z"/>
<path d="M2160 890 c0 -5 7 -10 15 -10 8 0 15 5 15 10 0 6 -7 10 -15 10 -8 0
-15 -4 -15 -10z"/>
<path d="M1766 861 c-3 -5 1 -11 9 -15 9 -3 15 0 15 9 0 16 -16 20 -24 6z"/>
<path d="M1831 862 c0 -7 -5 -10 -11 -7 -5 3 -10 -3 -10 -14 0 -14 5 -19 15
-15 8 4 15 1 15 -5 0 -6 -6 -11 -12 -11 -8 -1 -6 -6 5 -14 21 -16 22 -42 1
-50 -23 -9 -24 -8 -24 14 0 25 -17 26 -23 3 -4 -17 -5 -17 -6 0 -2 38 -21 14
-21 -28 0 -37 3 -45 18 -45 26 0 34 11 21 27 -14 16 -5 16 37 1 35 -12 54 -38
29 -38 -8 0 -15 -5 -15 -11 0 -7 9 -9 21 -6 23 6 39 -20 19 -33 -7 -5 -11 -19
-8 -34 5 -23 3 -24 -16 -14 -12 6 -24 15 -27 21 -4 6 -9 6 -12 0 -9 -15 22
-53 37 -47 8 3 17 1 20 -5 4 -6 -9 -13 -29 -17 -25 -4 -35 -11 -35 -25 0 -11
0 -22 -1 -26 -1 -15 29 -14 44 1 13 13 18 11 46 -19 17 -19 38 -35 46 -35 8 0
15 -4 15 -9 0 -10 -30 -25 -45 -22 -5 1 -2 -6 8 -16 16 -16 20 -16 30 -3 7 9
19 15 27 15 8 0 18 4 22 9 9 13 -10 36 -29 36 -7 0 -16 6 -18 13 -6 15 19 90
27 82 3 -3 8 5 10 19 4 19 1 23 -11 18 -13 -4 -13 -2 2 15 17 20 17 20 -8 17
-16 -1 -34 5 -46 17 -26 26 -24 37 8 31 l27 -5 -22 23 c-12 13 -19 27 -16 32
3 4 -2 8 -10 8 -10 0 -16 -9 -16 -22 0 -17 -3 -20 -9 -9 -5 8 -8 24 -6 37 1
13 -2 24 -6 24 -5 0 -9 11 -9 25 0 16 6 25 15 25 8 0 15 -6 15 -14 0 -8 5 -18
12 -22 7 -4 8 -3 4 4 -4 7 -2 12 4 12 6 0 4 10 -6 25 -8 13 -13 29 -9 34 4 7
-1 8 -11 4 -13 -5 -15 -3 -10 8 4 8 1 6 -7 -3 -15 -19 -32 -25 -22 -8 3 6 -1
10 -9 10 -8 0 -17 8 -19 18 -3 9 -5 11 -6 4z m80 -274 c11 -21 11 -22 -4 -9
-10 7 -17 17 -17 22 0 15 9 10 21 -13z m24 -57 c-9 -16 -25 -3 -18 15 4 10 9
12 15 6 6 -6 7 -15 3 -21z m-29 -13 c18 -8 30 -22 31 -36 2 -19 1 -21 -17 -10
-12 8 -15 15 -8 19 7 4 3 11 -10 18 -16 9 -24 8 -36 -5 -13 -12 -16 -13 -16
-1 0 29 15 33 56 15z m89 -98 c3 -5 1 -10 -4 -10 -6 0 -11 5 -11 10 0 6 2 10
4 10 3 0 8 -4 11 -10z"/>
<path d="M1989 846 c-9 -20 -8 -27 11 -46 29 -29 56 -20 38 12 -6 13 -11 31
-9 41 4 26 -28 21 -40 -7z m26 -26 c3 -5 1 -10 -4 -10 -6 0 -11 5 -11 10 0 6
2 10 4 10 3 0 8 -4 11 -10z"/>
<path d="M2320 860 c0 -5 5 -10 10 -10 6 0 10 5 10 10 0 6 -4 10 -10 10 -5 0
-10 -4 -10 -10z"/>
<path d="M2050 826 c0 -9 5 -16 10 -16 6 0 10 4 10 9 0 6 -4 13 -10 16 -5 3
-10 -1 -10 -9z"/>
<path d="M2290 830 c0 -5 7 -10 15 -10 8 0 15 5 15 10 0 6 -7 10 -15 10 -8 0
-15 -4 -15 -10z"/>
<path d="M2121 814 c0 -11 3 -14 6 -6 3 7 2 16 -1 19 -3 4 -6 -2 -5 -13z"/>
<path d="M2161 804 c0 -11 3 -14 6 -6 3 7 2 16 -1 19 -3 4 -6 -2 -5 -13z"/>
<path d="M508 780 c3 -23 9 -30 27 -30 13 0 25 7 29 15 4 10 -1 15 -14 15 -11
0 -20 7 -20 15 0 8 -6 15 -13 15 -9 0 -12 -10 -9 -30z"/>
<path d="M2320 796 c0 -8 -6 -17 -12 -19 -10 -4 -10 -6 0 -6 7 -1 12 -16 12
-41 0 -22 4 -40 9 -40 10 0 21 34 21 68 0 13 6 22 15 22 8 0 15 7 15 15 0 10
-10 15 -30 15 -19 0 -30 -5 -30 -14z"/>
<path d="M2420 800 c0 -5 5 -10 10 -10 6 0 10 5 10 10 0 6 -4 10 -10 10 -5 0
-10 -4 -10 -10z"/>
<path d="M2570 795 c0 -8 -7 -15 -15 -15 -8 0 -15 -7 -15 -15 0 -8 -9 -15 -20
-15 -11 0 -20 -7 -20 -15 0 -8 -7 -15 -15 -15 -8 0 -15 -7 -15 -15 0 -8 -6
-15 -14 -15 -15 0 -25 -27 -19 -47 6 -17 44 -17 41 -1 -2 7 7 14 20 16 21 3
32 32 12 32 -5 0 -10 7 -10 15 0 8 9 15 20 15 11 0 20 -7 20 -15 0 -8 7 -15
15 -15 8 0 15 7 15 15 0 8 7 15 15 15 8 0 15 7 15 15 0 8 -9 15 -20 15 -13 0
-18 5 -14 15 4 8 12 15 20 15 8 0 14 7 14 15 0 8 -7 15 -15 15 -8 0 -15 -7
-15 -15z"/>
<path d="M611 776 c-1 -11 -4 -17 -7 -13 -9 9 -44 -25 -37 -36 4 -6 -2 -8 -15
-5 -16 5 -19 2 -14 -11 8 -21 32 -45 32 -32 0 6 7 8 15 5 12 -5 15 2 15 29 0
22 5 37 14 39 9 2 11 9 5 23 -7 19 -8 19 -8 1z"/>
<path d="M30 766 c0 -9 -8 -16 -17 -17 -12 0 -8 -4 10 -11 17 -6 27 -17 27
-30 0 -18 4 -19 35 -14 22 4 35 3 35 -4 0 -5 -6 -10 -14 -10 -8 0 -13 -8 -11
-17 2 -10 4 -21 4 -25 1 -5 10 -8 21 -8 12 0 20 -7 20 -16 0 -13 -3 -14 -15
-4 -8 7 -21 10 -30 7 -8 -4 -17 -2 -20 3 -8 13 -45 13 -45 0 0 -5 6 -10 13
-10 7 0 18 -5 25 -12 15 -15 -4 -52 -21 -41 -7 4 -7 0 2 -10 17 -21 31 -22 31
-2 0 8 8 15 18 15 14 0 15 -2 2 -10 -10 -6 -11 -12 -5 -19 15 -15 47 14 51 44
3 34 54 75 54 45 0 -5 -7 -10 -16 -10 -13 0 -14 -3 -5 -14 9 -11 8 -17 -9 -29
-25 -18 -17 -47 13 -45 12 1 38 -2 57 -5 35 -7 35 -7 -8 13 -23 10 -50 17 -60
14 -15 -5 -14 -4 2 10 10 8 23 13 27 10 5 -3 6 1 3 9 -3 8 0 18 7 23 8 4 10 3
5 -5 -5 -7 3 -13 23 -17 17 -4 31 -11 31 -16 0 -4 14 -1 30 7 39 20 31 37 -12
25 -20 -6 -37 -6 -47 1 -13 9 -12 10 7 6 30 -7 29 23 -2 52 -18 17 -23 32 -22
56 3 33 -16 55 -29 35 -4 -6 -1 -10 4 -10 6 0 11 -4 11 -10 0 -5 -13 -10 -30
-10 -32 0 -42 23 -15 34 8 3 15 11 15 18 0 10 -2 10 -9 -1 -7 -11 -11 -10 -19
5 -6 10 -14 15 -18 11 -5 -5 -2 -12 6 -17 8 -5 12 -11 9 -15 -3 -3 -17 4 -32
15 -28 22 -47 26 -47 9 0 -6 7 -9 15 -5 8 3 15 1 15 -4 0 -6 -4 -10 -9 -10 -5
0 -7 -9 -4 -20 4 -14 0 -20 -11 -20 -9 0 -16 7 -16 15 0 8 -5 15 -11 15 -6 0
-9 7 -6 15 4 8 2 17 -3 20 -6 4 -10 -1 -10 -9z m94 -41 c-4 -8 -10 -12 -15 -9
-14 8 -10 24 6 24 9 0 12 -6 9 -15z m87 -38 c-8 -8 -6 -16 7 -30 16 -19 16
-20 -8 -14 -14 4 -31 7 -39 7 -7 0 -11 6 -8 15 4 8 2 17 -3 20 -6 4 -10 1 -10
-4 0 -6 -4 -11 -9 -11 -5 0 -7 8 -4 18 3 14 12 17 44 14 29 -3 38 -7 30 -15z
m-93 -97 c7 -11 9 -20 4 -20 -10 0 -32 22 -32 32 0 15 15 8 28 -12z"/>
<path d="M2187 759 c-4 -15 -2 -19 10 -15 8 3 17 6 19 6 2 0 4 7 4 15 0 23
-27 18 -33 -6z"/>
<path d="M2416 754 c-4 -15 -5 -29 -1 -32 3 -3 5 2 5 11 0 10 5 17 10 17 6 0
10 7 10 15 0 25 -17 17 -24 -11z"/>
<path d="M1950 746 c7 -7 13 -7 20 0 6 6 3 10 -10 10 -13 0 -16 -4 -10 -10z"/>
<path d="M249 745 c-5 -36 -3 -71 5 -77 12 -8 46 9 46 24 0 6 -9 3 -20 -7 -21
-19 -29 -8 -9 12 8 8 7 17 -5 34 -9 13 -17 19 -17 14z"/>
<path d="M760 735 c0 -8 7 -15 15 -15 8 0 15 7 15 15 0 8 -7 15 -15 15 -8 0
-15 -7 -15 -15z"/>
<path d="M850 730 c0 -11 -5 -29 -12 -39 -11 -18 -12 -18 -32 1 -12 10 -22 14
-24 8 -2 -5 -8 -10 -13 -10 -6 0 -7 5 -4 10 3 6 1 10 -4 10 -6 0 -11 -11 -11
-25 0 -13 -10 -33 -22 -45 -19 -18 -20 -20 -4 -20 10 0 20 9 23 21 5 17 11 20
37 16 17 -3 38 -8 47 -12 13 -5 15 -1 12 19 -5 24 -3 26 31 26 25 0 36 4 36
15 0 8 -7 15 -15 15 -8 0 -15 7 -15 15 0 8 -7 15 -15 15 -8 0 -15 -9 -15 -20z"/>
<path d="M910 735 c0 -8 7 -15 15 -15 8 0 15 -7 15 -15 0 -8 -7 -15 -15 -15
-10 0 -15 -10 -15 -30 0 -20 5 -30 15 -30 8 0 15 7 15 15 0 9 6 12 15 9 10 -4
15 0 15 15 0 12 6 21 15 21 8 0 15 7 15 15 0 8 -7 15 -15 15 -8 0 -15 7 -15
15 0 10 -10 15 -30 15 -20 0 -30 -5 -30 -15z"/>
<path d="M1382 734 c4 -21 22 -23 26 -1 2 10 -3 17 -13 17 -10 0 -15 -6 -13
-16z"/>
<path d="M1720 735 c0 -8 7 -15 15 -15 8 0 15 7 15 15 0 8 -7 15 -15 15 -8 0
-15 -7 -15 -15z"/>
<path d="M2130 735 c0 -8 7 -15 15 -15 8 0 15 7 15 15 0 8 -7 15 -15 15 -8 0
-15 -7 -15 -15z"/>
<path d="M2220 735 c0 -8 7 -15 15 -15 8 0 15 7 15 15 0 8 -7 15 -15 15 -8 0
-15 -7 -15 -15z"/>
<path d="M665 731 c3 -7 -2 -11 -14 -11 -14 0 -21 -6 -21 -18 0 -15 6 -18 29
-14 37 5 45 24 19 41 -11 7 -17 8 -13 2z"/>
<path d="M1320 731 c0 -6 4 -13 10 -16 6 -3 7 1 4 9 -7 18 -14 21 -14 7z"/>
<path d="M1495 730 c-3 -5 -1 -10 4 -10 6 0 11 5 11 10 0 6 -2 10 -4 10 -3 0
-8 -4 -11 -10z"/>
<path d="M1910 730 c0 -5 7 -10 16 -10 8 0 12 5 9 10 -3 6 -10 10 -16 10 -5 0
-9 -4 -9 -10z"/>
<path d="M5 710 c3 -5 10 -10 16 -10 5 0 9 5 9 10 0 6 -7 10 -16 10 -8 0 -12
-4 -9 -10z"/>
<path d="M440 698 c0 -12 3 -19 6 -15 3 3 17 2 30 -3 19 -7 24 -6 24 5 0 8 -6
14 -12 13 -7 -2 -12 3 -10 10 1 6 -7 12 -18 12 -14 0 -20 -7 -20 -22z"/>
<path d="M1029 701 c-29 -33 -31 -41 -9 -41 12 0 18 5 15 10 -3 6 1 13 9 16 9
3 16 12 16 20 0 18 -11 16 -31 -5z"/>
<path d="M1160 705 c0 -8 7 -15 15 -15 8 0 15 7 15 15 0 8 -7 15 -15 15 -8 0
-15 -7 -15 -15z"/>
<path d="M1276 712 c-3 -5 1 -9 9 -9 8 0 12 4 9 9 -3 4 -7 8 -9 8 -2 0 -6 -4
-9 -8z"/>
<path d="M2010 708 c0 -21 18 -43 27 -34 4 5 2 11 -5 13 -6 3 -10 9 -7 13 3 5
1 11 -5 15 -5 3 -10 0 -10 -7z"/>
<path d="M2156 703 c-4 -9 -2 -21 4 -27 7 -7 10 -6 10 2 0 7 7 12 15 12 9 0
12 6 9 15 -8 20 -30 19 -38 -2z"/>
<path d="M310 703 c0 -5 6 -17 13 -27 10 -14 18 -16 31 -9 16 9 16 11 2 22 -9
8 -16 10 -16 6 0 -4 -7 -2 -15 5 -8 7 -15 8 -15 3z"/>
<path d="M390 701 c0 -5 5 -13 10 -16 6 -3 10 -2 10 4 0 5 -4 13 -10 16 -5 3
-10 2 -10 -4z"/>
<path d="M1510 695 c7 -8 16 -15 21 -15 5 0 9 7 9 15 0 9 -9 15 -21 15 -18 0
-19 -2 -9 -15z"/>
<path d="M1950 696 c0 -8 9 -17 19 -21 10 -3 31 -17 45 -32 25 -25 26 -25 26
-4 0 12 -6 21 -15 21 -9 0 -27 11 -41 25 -29 29 -34 30 -34 11z"/>
<path d="M2260 700 c0 -5 5 -10 10 -10 6 0 10 5 10 10 0 6 -4 10 -10 10 -5 0
-10 -4 -10 -10z"/>
<path d="M10 680 c-13 -9 -13 -11 0 -20 12 -7 12 -12 2 -22 -6 -6 -12 -22 -12
-35 0 -17 5 -23 23 -22 17 0 18 2 6 7 -18 8 -17 35 1 57 17 20 37 19 49 -2 6
-10 10 -13 11 -8 0 24 -19 38 -44 31 -20 -5 -24 -3 -20 9 7 17 4 18 -16 5z"/>
<path d="M690 659 c0 -28 2 -30 18 -18 9 7 18 14 20 15 1 1 0 9 -4 18 -11 29
-34 19 -34 -15z"/>
<path d="M1056 658 c-20 -38 -20 -38 -1 -38 8 0 15 6 15 14 0 8 7 16 15 20 19
7 20 36 1 36 -8 0 -22 -14 -30 -32z"/>
<path d="M1228 683 c0 -5 -2 -12 -3 -18 -2 -5 -3 -18 -4 -27 -2 -26 -31 -22
-32 5 -1 16 -2 18 -6 4 -3 -13 -12 -16 -36 -12 -32 6 -32 6 -9 -10 12 -9 22
-22 22 -30 0 -8 4 -17 10 -20 7 -4 7 3 0 19 -12 31 -1 33 34 5 14 -11 32 -18
39 -16 7 3 5 6 -5 6 -25 1 -22 18 3 24 15 4 20 11 15 22 -3 9 -6 25 -6 36 0
18 -18 28 -22 12z"/>
<path d="M1340 675 c0 -10 29 -24 34 -17 3 6 -3 12 -14 15 -11 3 -20 4 -20 2z"/>
<path d="M281 656 c-14 -17 3 -61 20 -51 15 10 10 25 -8 25 -17 1 -17 1 0 14
9 7 17 16 17 20 0 11 -17 6 -29 -8z"/>
<path d="M430 661 c0 -6 8 -11 18 -11 14 0 15 -2 2 -10 -11 -7 -6 -9 17 -7 36
2 43 12 16 20 -10 2 -26 8 -35 12 -11 4 -18 3 -18 -4z"/>
<path d="M520 659 c0 -7 3 -9 7 -6 3 4 13 1 21 -6 13 -10 14 -9 10 3 -6 19
-38 26 -38 9z"/>
<path d="M880 650 c0 -11 4 -20 9 -20 5 0 7 9 4 20 -3 11 -7 20 -9 20 -2 0 -4
-9 -4 -20z"/>
<path d="M1537 649 c3 -10 11 -19 19 -19 16 0 8 26 -11 33 -9 4 -11 -1 -8 -14z"/>
<path d="M358 653 c-55 -6 -46 -20 12 -19 33 1 50 5 50 14 0 6 -6 11 -12 10
-7 -1 -30 -3 -50 -5z"/>
<path d="M1285 630 c2 -14 4 -28 4 -32 2 -14 28 -8 42 9 10 11 10 14 2 9 -7
-4 -13 -2 -13 3 0 6 -6 11 -14 11 -8 0 -17 6 -20 13 -2 6 -3 1 -1 -13z"/>
<path d="M1730 640 c0 -5 5 -10 10 -10 6 0 10 5 10 10 0 6 -4 10 -10 10 -5 0
-10 -4 -10 -10z"/>
<path d="M2320 640 c0 -5 5 -10 10 -10 6 0 10 5 10 10 0 6 -4 10 -10 10 -5 0
-10 -4 -10 -10z"/>
<path d="M1088 633 c7 -3 16 -2 19 1 4 3 -2 6 -13 5 -11 0 -14 -3 -6 -6z"/>
<path d="M1760 630 c0 -6 -15 -10 -34 -10 -19 0 -36 -6 -39 -13 -3 -8 6 -12
30 -11 26 2 33 -1 29 -12 -4 -10 2 -14 19 -14 22 0 25 4 23 30 -2 26 -28 54
-28 30z"/>
<path d="M2190 630 c0 -5 5 -10 11 -10 5 0 7 5 4 10 -3 6 -8 10 -11 10 -2 0
-4 -4 -4 -10z"/>
<path d="M355 621 c-3 -6 -12 -8 -20 -4 -18 6 -20 -8 -3 -25 10 -10 10 -15 -2
-22 -17 -11 -13 -15 21 -23 24 -6 26 -4 26 21 0 15 -2 21 -4 15 -3 -7 -9 -13
-14 -13 -10 0 0 32 14 41 5 4 5 9 -1 13 -6 3 -13 2 -17 -3z"/>
<path d="M630 620 c0 -9 39 -25 46 -18 2 3 -7 10 -21 16 -14 6 -25 7 -25 2z"/>
<path d="M794 618 c-5 -8 -2 -9 9 -5 11 4 17 1 17 -8 0 -8 5 -15 10 -15 7 0 7
6 0 20 -12 23 -25 26 -36 8z"/>
<path d="M1440 619 c0 -5 5 -7 10 -4 6 3 10 8 10 11 0 2 -4 4 -10 4 -5 0 -10
-5 -10 -11z"/>
<path d="M1940 626 c0 -2 7 -6 15 -10 8 -3 15 -1 15 4 0 6 -7 10 -15 10 -8 0
-15 -2 -15 -4z"/>
<path d="M910 610 c0 -5 5 -10 11 -10 5 0 7 5 4 10 -3 6 -8 10 -11 10 -2 0 -4
-4 -4 -10z"/>
<path d="M1015 610 c3 -5 11 -10 16 -10 6 0 7 5 4 10 -3 6 -11 10 -16 10 -6 0
-7 -4 -4 -10z"/>
<path d="M684 590 c-37 -37 -44 -49 -34 -55 6 -4 8 -11 4 -16 -3 -5 0 -8 8 -7
8 2 12 -4 10 -14 -2 -10 2 -18 8 -18 5 0 10 7 10 16 0 12 7 15 25 12 13 -3 22
-1 19 3 -3 5 -15 9 -28 9 -12 0 -27 5 -33 11 -17 17 5 36 38 31 31 -5 42 7 28
28 -8 12 -12 12 -16 3 -2 -7 -12 -13 -20 -13 -13 0 -13 3 -3 15 18 22 7 18
-16 -5z"/>
<path d="M1090 600 c13 -8 12 -10 -2 -10 -10 0 -18 -4 -18 -10 0 -15 27 -12
33 4 6 16 -1 26 -17 26 -6 0 -4 -5 4 -10z"/>
<path d="M2203 593 c-20 -7 -15 -33 5 -33 11 0 18 7 18 20 0 21 -2 22 -23 13z"/>
<path d="M2345 590 c-3 -6 1 -13 10 -16 21 -9 26 -2 10 13 -9 8 -16 9 -20 3z"/>
<path d="M2501 583 c-5 -10 -23 -18 -41 -19 -45 -2 -64 -24 -21 -24 24 0 34
-5 38 -20 4 -14 14 -20 34 -20 24 0 29 -4 29 -25 0 -43 18 -27 22 20 4 54 1
65 -18 65 -8 0 -14 9 -14 20 0 25 -16 26 -29 3z m39 -45 c0 -6 -6 -8 -14 -5
-9 4 -17 -1 -19 -11 -3 -11 -5 -7 -6 9 0 14 2 29 6 32 7 8 33 -11 33 -25z"/>
<path d="M630 575 c0 -8 2 -15 4 -15 2 0 6 7 10 15 3 8 1 15 -4 15 -6 0 -10
-7 -10 -15z"/>
<path d="M1440 576 c0 -2 7 -7 16 -10 8 -3 12 -2 9 4 -6 10 -25 14 -25 6z"/>
<path d="M2318 540 c-3 -33 0 -40 14 -40 22 0 25 45 4 65 -12 12 -15 9 -18
-25z"/>
<path d="M777 563 c-14 -13 -6 -25 13 -20 17 4 20 2 15 -14 -6 -18 -5 -19 14
-7 32 20 28 29 -11 32 -7 1 -16 4 -19 9 -3 4 -8 4 -12 0z"/>
<path d="M1129 553 c-13 -16 -12 -17 4 -4 16 13 21 21 13 21 -2 0 -10 -8 -17
-17z"/>
<path d="M256 532 c16 -15 33 -24 39 -20 16 14 23 9 18 -14 -5 -23 -5 -23 10
-3 9 11 17 15 17 8 0 -7 4 -13 8 -13 5 0 8 10 7 23 -1 18 -8 22 -36 23 -19 1
-44 6 -56 13 -35 18 -37 13 -7 -17z"/>
<path d="M1060 549 c0 -5 5 -7 10 -4 6 3 10 8 10 11 0 2 -4 4 -10 4 -5 0 -10
-5 -10 -11z"/>
<path d="M1355 550 c-3 -5 -1 -10 4 -10 6 0 11 5 11 10 0 6 -2 10 -4 10 -3 0
-8 -4 -11 -10z"/>
<path d="M1600 545 c0 -8 7 -15 15 -15 8 0 15 7 15 15 0 8 -7 15 -15 15 -8 0
-15 -7 -15 -15z"/>
<path d="M1660 540 c0 -13 5 -18 15 -14 8 4 15 12 15 20 0 8 -7 14 -15 14 -8
0 -15 -9 -15 -20z"/>
<path d="M1796 544 c-9 -24 -2 -26 12 -4 7 11 8 20 3 20 -5 0 -12 -7 -15 -16z"/>
<path d="M0 546 c0 -2 7 -7 16 -10 8 -3 12 -2 9 4 -6 10 -25 14 -25 6z"/>
<path d="M685 542 c6 -5 26 -12 45 -16 21 -4 31 -3 25 3 -6 5 -26 12 -45 16
-23 5 -32 4 -25 -3z"/>
<path d="M1155 540 c-7 -11 20 -20 60 -20 26 0 33 -4 30 -17 -1 -10 0 -12 2
-5 3 8 12 10 25 6 14 -4 19 -2 16 7 -7 20 -123 45 -133 29z"/>
<path d="M850 526 c0 -2 7 -6 15 -10 8 -3 15 -1 15 4 0 6 -7 10 -15 10 -8 0
-15 -2 -15 -4z"/>
<path d="M631 503 c-1 -13 8 -27 22 -34 21 -11 21 -11 6 7 -9 10 -19 26 -22
34 -4 10 -6 8 -6 -7z"/>
<path d="M1306 507 c2 -7 17 -14 31 -15 15 -1 31 -6 36 -11 5 -5 15 -7 22 -5
7 3 16 1 20 -5 4 -8 12 -8 26 -1 15 9 19 7 19 -5 0 -13 -9 -16 -47 -14 -26 2
-48 -1 -50 -7 -7 -20 32 -54 65 -58 41 -4 53 11 15 20 -54 12 -63 15 -63 25 0
6 9 7 23 3 28 -9 76 -14 91 -8 14 5 20 54 7 54 -5 0 -12 -6 -14 -12 -3 -7 -6
-4 -6 8 -1 17 -6 20 -31 16 -16 -2 -30 0 -30 6 0 5 -14 8 -31 6 -17 -2 -36 -1
-43 3 -21 13 -45 13 -40 0z"/>
<path d="M1695 503 c-5 -10 -7 -22 -6 -26 1 -4 -7 -3 -18 2 -14 8 -23 6 -37
-11 -12 -13 -13 -18 -4 -13 8 5 21 10 28 11 22 4 12 -15 -18 -33 -16 -9 -30
-23 -30 -29 0 -7 -7 -20 -16 -28 -8 -9 -11 -16 -6 -16 5 0 20 16 33 34 13 19
40 45 61 58 39 24 44 33 29 56 -6 11 -10 10 -16 -5z"/>
<path d="M140 500 c0 -5 7 -10 15 -10 8 0 15 -4 15 -10 0 -5 6 -9 13 -7 6 1
11 -3 10 -9 -1 -7 6 -10 16 -7 19 5 19 5 0 24 -11 11 -24 17 -29 14 -5 -3 -11
-1 -15 5 -8 13 -25 13 -25 0z"/>
<path d="M748 492 c-3 -12 -2 -20 2 -17 5 3 12 0 16 -6 5 -8 9 -8 14 1 5 9 17
10 36 5 21 -6 24 -9 12 -12 -10 -3 -18 -9 -18 -15 0 -5 7 -8 15 -4 22 8 45 -4
45 -23 0 -14 2 -14 10 -1 14 21 12 30 -5 30 -16 0 -21 15 -7 23 4 2 1 2 -7 0
-7 -2 -11 2 -8 9 3 9 -7 13 -33 12 -21 -1 -42 -4 -48 -8 -6 -3 -12 2 -14 11
-3 15 -5 14 -10 -5z"/>
<path d="M1036 496 c5 -13 0 -16 -25 -16 -17 0 -31 5 -31 10 0 6 -7 10 -15 10
-8 0 -15 -7 -15 -16 0 -10 6 -14 15 -10 8 3 18 0 22 -7 6 -10 15 -10 41 3 30
14 32 18 18 30 -14 11 -16 10 -10 -4z"/>
<path d="M1665 500 c3 -5 8 -10 11 -10 2 0 4 5 4 10 0 6 -5 10 -11 10 -5 0 -7
-4 -4 -10z"/>
<path d="M1985 501 c-3 -5 -1 -12 5 -16 5 -3 10 1 10 9 0 18 -6 21 -15 7z"/>
<path d="M2160 498 c0 -11 28 -10 35 1 3 6 -4 9 -15 8 -11 -1 -20 -5 -20 -9z"/>
<path d="M40 489 c0 -5 5 -7 10 -4 6 3 10 8 10 11 0 2 -4 4 -10 4 -5 0 -10 -5
-10 -11z"/>
<path d="M215 490 c3 -5 10 -10 16 -10 5 0 9 5 9 10 0 6 -7 10 -16 10 -8 0
-12 -4 -9 -10z"/>
<path d="M920 490 c0 -5 5 -10 10 -10 6 0 10 5 10 10 0 6 -4 10 -10 10 -5 0
-10 -4 -10 -10z"/>
<path d="M1111 483 c15 -25 18 -26 68 -23 18 1 37 -3 41 -10 5 -8 11 -6 20 5
11 13 7 15 -26 17 -22 0 -48 0 -58 -1 -11 -1 -28 7 -39 16 -19 18 -19 17 -6
-4z"/>
<path d="M1528 475 c2 -14 6 -25 8 -25 2 0 4 11 4 25 0 14 -4 25 -9 25 -4 0
-6 -11 -3 -25z"/>
<path d="M1560 480 c-8 -5 -12 -12 -9 -15 4 -3 12 1 19 10 14 17 11 19 -10 5z"/>
<path d="M2205 480 c3 -5 8 -10 11 -10 2 0 4 5 4 10 0 6 -5 10 -11 10 -5 0 -7
-4 -4 -10z"/>
<path d="M0 469 c0 -5 5 -7 10 -4 5 3 10 8 10 11 0 2 -4 4 -10 4 -5 0 -10 -5
-10 -11z"/>
<path d="M1279 470 c-1 -8 -1 -19 0 -24 1 -5 -5 -6 -13 -3 -10 4 -13 1 -9 -8
3 -8 9 -12 14 -9 5 3 9 0 9 -5 0 -6 5 -11 11 -11 6 0 9 7 5 15 -4 11 2 15 24
15 17 0 30 5 30 10 0 6 -11 8 -25 6 -16 -3 -28 1 -35 12 -8 14 -10 14 -11 2z"/>
<path d="M2303 473 c-15 -5 -17 -30 -4 -35 4 -1 12 -14 16 -28 7 -24 6 -24 -8
-6 -14 19 -15 18 -22 -15 -4 -19 -11 -38 -15 -44 -5 -5 -11 -32 -13 -60 -3
-27 -6 -51 -6 -52 -1 -2 -6 -3 -12 -3 -5 0 -7 5 -3 11 5 8 1 8 -13 0 -11 -6
-23 -7 -27 -3 -4 3 -4 -2 0 -12 5 -14 9 -15 15 -4 7 10 9 9 9 -5 0 -14 -5 -17
-20 -12 -16 5 -23 0 -31 -24 -6 -17 -16 -31 -21 -31 -6 0 -4 -7 3 -17 13 -15
12 -15 -11 -3 -14 7 -26 13 -27 12 -2 -1 -10 1 -18 5 -9 3 -19 3 -22 0 -7 -8
40 -27 83 -34 26 -4 32 -1 37 16 3 12 13 21 22 21 13 0 16 6 11 24 -4 15 0 28
9 36 13 11 15 7 15 -23 0 -20 -4 -39 -10 -42 -5 -3 -10 -11 -10 -16 0 -6 5 -7
10 -4 22 13 31 -7 13 -28 -9 -12 -11 -16 -3 -9 8 6 23 12 35 12 17 -1 18 -2 5
-13 -14 -11 -14 -14 1 -28 15 -15 17 -14 28 16 14 41 14 46 -4 39 -8 -4 -22
-4 -30 0 -12 4 -13 11 -5 32 17 43 15 92 -4 113 -16 17 -16 19 0 25 9 4 14 12
10 21 -7 20 4 75 16 75 5 0 7 -8 4 -18 -4 -12 3 -26 19 -40 14 -12 25 -17 25
-12 0 6 -9 18 -19 27 -19 16 -18 43 1 43 6 0 7 -7 4 -16 -3 -8 -2 -12 4 -9 6
3 10 13 10 21 0 8 8 14 18 15 14 0 14 2 -3 9 -17 7 -17 9 -2 9 9 1 17 8 17 17
0 10 -8 15 -22 14 -43 -4 -50 -1 -45 20 3 11 4 20 4 19 -1 0 -8 -3 -14 -6z
m-28 -262 c3 -5 1 -12 -5 -16 -5 -3 -10 1 -10 9 0 18 6 21 15 7z m-55 -42 c0
-4 -7 -6 -15 -3 -8 4 -15 10 -15 15 0 4 7 6 15 3 8 -4 15 -10 15 -15z"/>
<path d="M140 460 c0 -5 5 -10 11 -10 5 0 7 5 4 10 -3 6 -8 10 -11 10 -2 0 -4
-4 -4 -10z"/>
<path d="M260 466 c0 -3 9 -10 20 -16 11 -6 20 -8 20 -6 0 3 -9 10 -20 16 -11
6 -20 8 -20 6z"/>
<path d="M700 460 c12 -8 12 -10 -3 -16 -9 -3 -17 -11 -17 -16 0 -6 6 -5 15 2
8 7 22 9 32 6 15 -6 15 -5 -2 14 -10 11 -23 20 -29 20 -6 0 -4 -4 4 -10z"/>
<path d="M905 460 c-3 -5 -2 -10 4 -10 6 0 8 -7 5 -15 -4 -8 -1 -16 5 -16 6
-1 17 -2 24 -3 6 0 16 -11 22 -23 5 -13 13 -23 18 -23 4 0 5 -5 1 -12 -4 -7
-3 -8 5 -4 8 5 7 13 -4 29 -20 28 -19 37 3 37 16 1 16 1 0 14 -10 7 -15 16
-11 19 3 4 -1 7 -9 7 -9 0 -18 -5 -20 -11 -3 -8 -10 -6 -20 5 -10 10 -19 12
-23 6z"/>
<path d="M1072 448 c2 -6 14 -12 27 -13 13 -1 27 -8 32 -16 6 -11 11 -11 21
-1 9 9 9 12 -1 12 -7 0 -19 7 -27 15 -18 18 -57 20 -52 3z"/>
<path d="M1564 449 c-4 -8 -3 -9 4 -5 7 4 12 2 12 -3 0 -6 -11 -11 -24 -11
-30 0 -42 -15 -20 -24 22 -8 26 -8 19 4 -3 5 0 7 8 4 22 -8 41 21 23 35 -11 9
-16 9 -22 0z"/>
<path d="M1168 443 c6 -2 18 -2 25 0 6 3 1 5 -13 5 -14 0 -19 -2 -12 -5z"/>
<path d="M2568 409 c-4 -23 -1 -29 14 -29 12 0 18 7 18 24 0 36 -27 41 -32 5z"/>
<path d="M830 420 c-23 -7 -23 -8 -3 -9 12 -1 25 4 28 9 3 6 5 10 3 9 -2 -1
-14 -5 -28 -9z"/>
<path d="M1015 410 c3 -5 8 -10 11 -10 2 0 4 5 4 10 0 6 -5 10 -11 10 -5 0 -7
-4 -4 -10z"/>
<path d="M1050 408 c0 -4 9 -8 21 -8 11 0 29 -5 40 -10 11 -6 19 -7 19 -1 0 5
-8 12 -17 17 -24 10 -63 12 -63 2z"/>
<path d="M1743 405 c5 -11 -2 -13 -36 -10 -31 4 -37 2 -22 -4 11 -5 31 -10 45
-10 19 -1 22 -3 10 -11 -8 -5 -11 -12 -7 -17 5 -4 12 -1 17 7 13 21 12 60 -1
60 -6 0 -9 -7 -6 -15z"/>
<path d="M2056 411 c-4 -7 -5 -15 -2 -18 9 -9 19 4 14 18 -4 11 -6 11 -12 0z"/>
<path d="M2085 410 c-3 -5 -1 -10 4 -10 6 0 11 5 11 10 0 6 -2 10 -4 10 -3 0
-8 -4 -11 -10z"/>
<path d="M2110 416 c0 -2 7 -6 15 -10 8 -3 15 -1 15 4 0 6 -7 10 -15 10 -8 0
-15 -2 -15 -4z"/>
<path d="M1265 384 c0 -30 31 -52 48 -35 8 8 7 11 -2 11 -9 0 -11 8 -8 21 4
14 2 19 -8 16 -7 -3 -17 -1 -22 4 -5 5 -9 -1 -8 -17z"/>
<path d="M1641 401 c-8 -5 -11 -16 -8 -25 4 -10 1 -16 -7 -16 -8 0 -17 -7 -20
-16 -8 -21 -8 -24 4 -24 6 0 10 5 10 11 0 6 10 18 21 28 24 19 24 56 0 42z"/>
<path d="M1787 379 c-12 -30 -12 -35 2 -46 9 -6 16 -19 16 -29 0 -9 6 -19 13
-21 7 -3 10 1 6 11 -5 12 0 16 19 16 14 0 30 7 35 16 6 11 11 13 16 5 4 -6 12
-11 18 -11 7 0 6 5 -2 15 -13 16 -53 11 -79 -9 -11 -8 -13 -8 -8 1 4 6 2 15
-4 19 -8 5 -8 9 1 14 10 6 9 13 -3 30 l-16 23 -14 -34z"/>
<path d="M2510 395 c0 -9 5 -15 11 -13 6 2 11 8 11 13 0 5 -5 11 -11 13 -6 2
-11 -4 -11 -13z"/>
<path d="M726 391 c-4 -5 2 -12 11 -14 17 -4 17 -5 1 -6 -10 0 -18 -8 -18 -17
0 -10 -6 -14 -15 -10 -16 6 -21 -9 -5 -19 13 -8 48 15 53 37 6 20 -18 45 -27
29z"/>
<path d="M856 378 c10 -15 31 -32 47 -39 30 -13 33 -19 15 -37 -7 -7 2 -6 20
3 34 18 43 37 15 34 -29 -2 -41 0 -55 14 -8 6 -24 21 -38 32 l-24 20 20 -27z"/>
<path d="M1086 373 c-9 -9 -7 -33 3 -33 12 0 22 28 12 34 -5 3 -11 3 -15 -1z"/>
<path d="M1525 370 c-18 -8 -18 -9 -2 -9 10 -1 15 -6 12 -11 -4 -6 -11 -8 -16
-5 -5 4 -9 2 -9 -3 0 -6 7 -13 16 -16 8 -3 13 -9 10 -14 -2 -4 6 -12 18 -18
20 -9 22 -8 18 12 -2 13 -7 22 -11 21 -3 -1 -7 3 -8 8 -1 6 8 9 20 8 21 -3 21
-2 -2 11 -18 10 -20 15 -10 19 11 4 11 5 -1 6 -8 0 -24 -4 -35 -9z"/>
<path d="M470 355 c0 -9 -9 -15 -21 -15 -17 0 -19 -3 -10 -14 8 -10 9 -16 1
-21 -17 -10 -11 -25 10 -25 15 0 20 7 20 29 0 16 6 31 15 35 8 3 15 10 15 16
0 5 -7 10 -15 10 -8 0 -15 -7 -15 -15z"/>
<path d="M775 360 c3 -5 8 -10 11 -10 2 0 4 5 4 10 0 6 -5 10 -11 10 -5 0 -7
-4 -4 -10z"/>
<path d="M1120 355 c0 -17 16 -20 25 -5 4 6 10 8 14 6 4 -3 13 -1 21 5 11 6 4
9 -22 9 -27 0 -38 -4 -38 -15z"/>
<path d="M1365 350 c10 -11 23 -20 28 -20 6 0 0 9 -13 20 -13 11 -25 20 -28
20 -3 0 3 -9 13 -20z"/>
<path d="M1682 340 c3 -18 0 -31 -9 -34 -8 -4 -13 3 -13 17 -1 21 -1 22 -15 3
-8 -11 -15 -25 -15 -30 0 -6 4 -5 9 3 7 10 10 10 13 1 2 -7 16 -14 32 -16 21
-2 26 1 22 12 -4 10 3 14 29 14 18 0 37 -5 41 -12 5 -8 2 -9 -9 -5 -9 3 -19 2
-22 -3 -4 -6 3 -10 14 -10 11 0 26 -6 33 -13 12 -12 63 -37 74 -37 3 0 2 5 -1
10 -3 6 -1 10 4 10 6 0 11 7 11 16 0 12 -6 15 -25 10 -41 -11 -74 2 -67 26 3
14 1 19 -6 14 -6 -3 -17 1 -25 9 -17 16 -42 21 -32 6 3 -6 -4 -9 -15 -8 -23 1
-28 27 -5 27 8 0 15 5 15 10 0 6 -10 10 -21 10 -18 0 -21 -5 -17 -30z"/>
<path d="M1910 366 c0 -12 63 -86 73 -86 5 0 4 6 -2 14 -9 11 -9 15 1 19 7 3
3 6 -9 6 -12 1 -31 13 -42 27 -12 15 -21 24 -21 20z"/>
<path d="M2150 359 c0 -5 5 -7 10 -4 6 3 10 8 10 11 0 2 -4 4 -10 4 -5 0 -10
-5 -10 -11z"/>
<path d="M2568 363 c7 -3 16 -2 19 1 4 3 -2 6 -13 5 -11 0 -14 -3 -6 -6z"/>
<path d="M2110 348 c0 -6 7 -19 15 -29 14 -15 14 -18 -1 -33 -12 -13 -14 -20
-5 -29 18 -18 13 -32 -6 -15 -26 22 -51 29 -56 15 -2 -7 -8 -8 -13 -4 -5 5 -1
14 9 21 9 7 17 18 17 25 0 6 6 10 12 8 7 -1 14 8 16 21 2 14 -2 22 -12 22 -8
0 -16 -10 -18 -22 -2 -19 -8 -22 -35 -20 -40 4 -42 -8 -5 -49 15 -17 26 -35
25 -39 -1 -5 11 -4 28 0 23 7 37 5 54 -6 15 -10 25 -12 30 -5 3 6 -1 11 -10
11 -15 0 -15 2 -1 15 8 8 19 15 25 15 6 0 11 5 11 11 0 5 -4 8 -9 4 -10 -5
-41 48 -41 70 0 7 -7 15 -15 19 -8 3 -15 0 -15 -6z m44 -97 c-9 -10 -26 18
-18 30 5 9 9 8 14 -7 4 -10 6 -21 4 -23z m-74 -11 c0 -5 -4 -10 -10 -10 -5 0
-10 5 -10 10 0 6 5 10 10 10 6 0 10 -4 10 -10z"/>
<path d="M800 346 c0 -2 7 -9 15 -16 9 -7 15 -8 15 -2 0 5 -7 12 -15 16 -8 3
-15 4 -15 2z"/>
<path d="M2416 343 c-10 -10 -7 -63 4 -63 22 0 25 2 22 17 -2 11 2 13 17 8 18
-5 20 -3 13 16 -8 21 -43 35 -56 22z"/>
<path d="M372 331 c-11 -7 -11 -9 0 -13 17 -6 38 1 38 13 0 11 -21 11 -38 0z"/>
<path d="M743 333 c-22 -8 -14 -23 12 -23 16 0 25 6 25 15 0 15 -14 18 -37 8z"/>
<path d="M847 326 c-3 -8 1 -17 9 -20 9 -3 12 -1 9 4 -3 6 -1 10 4 10 6 0 11
5 11 10 0 15 -27 12 -33 -4z"/>
<path d="M2195 330 c-3 -5 1 -10 9 -10 9 0 16 5 16 10 0 6 -4 10 -9 10 -6 0
-13 -4 -16 -10z"/>
<path d="M2505 330 c-3 -5 1 -10 9 -10 9 0 16 5 16 10 0 6 -4 10 -9 10 -6 0
-13 -4 -16 -10z"/>
<path d="M1253 316 c4 -10 7 -22 7 -27 0 -5 4 -9 9 -9 12 0 2 38 -12 47 -7 4
-8 0 -4 -11z"/>
<path d="M66 305 c-3 -8 -1 -15 3 -15 5 0 11 7 15 15 3 8 1 15 -3 15 -5 0 -11
-7 -15 -15z"/>
<path d="M1160 316 c0 -2 7 -6 15 -10 8 -3 15 -1 15 4 0 6 -7 10 -15 10 -8 0
-15 -2 -15 -4z"/>
<path d="M1354 309 c-3 -6 -2 -15 3 -20 5 -5 9 -1 9 11 0 23 -2 24 -12 9z"/>
<path d="M2295 310 c3 -5 10 -10 16 -10 5 0 9 5 9 10 0 6 -7 10 -16 10 -8 0
-12 -4 -9 -10z"/>
<path d="M540 300 c0 -5 5 -10 10 -10 6 0 10 5 10 10 0 6 -4 10 -10 10 -5 0
-10 -4 -10 -10z"/>
<path d="M1383 292 c0 -12 5 -22 9 -22 11 0 10 12 -2 30 -7 12 -9 10 -7 -8z"/>
<path d="M2369 309 c-5 -22 -4 -47 1 -44 4 2 16 -5 28 -15 23 -22 32 -25 32
-11 0 5 -9 13 -21 16 -12 4 -18 13 -15 20 3 8 -2 19 -10 25 -8 7 -14 11 -15 9z"/>
<path d="M2540 300 c0 -5 5 -10 10 -10 6 0 10 5 10 10 0 6 -4 10 -10 10 -5 0
-10 -4 -10 -10z"/>
<path d="M940 289 c0 -7 -10 -9 -24 -7 -21 4 -23 3 -13 -14 14 -22 37 -24 37
-3 0 12 7 14 28 9 30 -8 28 -3 -5 15 -17 9 -23 9 -23 0z"/>
<path d="M1093 293 c9 -2 23 -2 30 0 6 3 -1 5 -18 5 -16 0 -22 -2 -12 -5z"/>
<path d="M1410 290 c0 -5 5 -10 11 -10 5 0 7 5 4 10 -3 6 -8 10 -11 10 -2 0
-4 -4 -4 -10z"/>
<path d="M1507 289 c7 -7 15 -10 18 -7 3 3 -2 9 -12 12 -14 6 -15 5 -6 -5z"/>
<path d="M2575 290 c3 -5 11 -10 16 -10 6 0 7 5 4 10 -3 6 -11 10 -16 10 -6 0
-7 -4 -4 -10z"/>
<path d="M1946 277 c3 -10 9 -15 12 -12 3 3 0 11 -7 18 -10 9 -11 8 -5 -6z"/>
<path d="M2477 283 c-14 -13 -7 -42 8 -37 8 4 15 15 15 25 0 19 -11 25 -23 12z"/>
<path d="M2218 273 c7 -3 16 -2 19 1 4 3 -2 6 -13 5 -11 0 -14 -3 -6 -6z"/>
<path d="M2540 265 c0 -8 5 -15 10 -15 6 0 10 7 10 15 0 8 -4 15 -10 15 -5 0
-10 -7 -10 -15z"/>
<path d="M1075 260 c3 -5 8 -10 11 -10 2 0 4 5 4 10 0 6 -5 10 -11 10 -5 0 -7
-4 -4 -10z"/>
<path d="M1639 256 c9 -11 8 -15 -5 -20 -23 -9 -27 -8 -20 9 3 8 1 15 -4 15
-6 0 -10 -9 -10 -20 0 -22 12 -25 41 -10 23 13 24 26 3 34 -14 5 -15 4 -5 -8z"/>
<path d="M415 251 c-3 -6 -13 -8 -23 -5 -14 5 -14 3 2 -10 25 -20 46 -21 46
-2 0 19 -17 30 -25 17z"/>
<path d="M1730 248 c0 -11 12 -10 30 2 12 7 10 9 -8 7 -12 0 -22 -5 -22 -9z"/>
<path d="M2441 244 c0 -11 3 -14 6 -6 3 7 2 16 -1 19 -3 4 -6 -2 -5 -13z"/>
<path d="M31 247 c2 -1 13 -9 24 -17 19 -14 19 -14 6 3 -7 9 -18 17 -24 17 -6
0 -8 -1 -6 -3z"/>
<path d="M275 240 c3 -5 14 -10 23 -10 15 0 15 2 2 10 -20 13 -33 13 -25 0z"/>
<path d="M600 236 c0 -7 8 -16 19 -19 14 -3 17 0 14 14 -6 22 -33 26 -33 5z"/>
<path d="M1190 239 c0 -7 8 -18 18 -25 20 -16 76 -19 67 -4 -4 6 -10 8 -15 5
-13 -8 -40 6 -40 21 0 8 -7 14 -15 14 -8 0 -15 -5 -15 -11z"/>
<path d="M1700 240 c0 -5 5 -10 10 -10 6 0 10 5 10 10 0 6 -4 10 -10 10 -5 0
-10 -4 -10 -10z"/>
<path d="M1945 237 c-5 -7 -11 -21 -12 -32 -1 -11 0 -14 3 -7 3 6 13 12 22 13
11 0 13 2 4 6 -10 4 -10 8 -1 19 6 8 8 14 3 14 -5 -1 -13 -6 -19 -13z"/>
<path d="M2360 240 c0 -5 5 -10 10 -10 6 0 10 -8 10 -18 0 -9 9 -23 19 -29 16
-10 20 -9 25 3 3 9 11 12 17 8 8 -4 9 -3 5 4 -4 7 -13 12 -20 12 -7 0 -23 9
-36 20 -26 23 -30 24 -30 10z"/>
<path d="M1471 231 c0 -8 -7 -11 -17 -7 -14 5 -15 4 -4 -9 11 -13 8 -15 -19
-15 -17 0 -31 -4 -31 -10 0 -5 11 -10 24 -10 14 0 27 -4 30 -9 7 -11 46 -2 46
10 0 5 -4 9 -9 9 -5 0 -12 12 -14 28 -2 15 -5 21 -6 13z"/>
<path d="M1820 215 c0 -16 6 -25 15 -25 8 0 15 9 15 19 0 10 -7 21 -15 25 -11
4 -15 -1 -15 -19z"/>
<path d="M2309 239 c-6 -31 -5 -40 7 -49 10 -9 18 -8 32 2 16 11 17 15 6 26
-8 7 -14 10 -14 6 0 -3 -7 -1 -15 6 -8 7 -15 11 -16 9z"/>
<path d="M2545 230 c3 -5 8 -10 11 -10 2 0 4 5 4 10 0 6 -5 10 -11 10 -5 0 -7
-4 -4 -10z"/>
<path d="M1980 219 c0 -5 5 -7 10 -4 6 3 10 8 10 11 0 2 -4 4 -10 4 -5 0 -10
-5 -10 -11z"/>
<path d="M250 202 c-12 -13 -9 -14 28 -9 24 4 43 3 47 -3 10 -16 25 -11 25 8
0 15 -8 19 -43 19 -25 0 -49 -7 -57 -15z"/>
<path d="M695 210 c-3 -6 1 -7 9 -4 18 7 21 14 7 14 -6 0 -13 -4 -16 -10z"/>
<path d="M775 200 c3 -5 8 -10 11 -10 2 0 4 5 4 10 0 6 -5 10 -11 10 -5 0 -7
-4 -4 -10z"/>
<path d="M1315 179 c-4 -17 -4 -33 -1 -36 3 -4 6 -1 6 6 0 8 7 11 15 7 16 -6
20 10 9 38 -10 25 -22 19 -29 -15z"/>
<path d="M2001 207 c14 -12 69 -34 69 -28 0 9 -45 31 -62 31 -6 0 -9 -2 -7 -3z"/>
<path d="M591 196 c2 -2 15 -9 29 -15 24 -11 24 -11 6 3 -16 13 -49 24 -35 12z"/>
<path d="M675 186 c17 -8 32 -12 34 -10 7 6 -2 11 -34 17 l-30 6 30 -13z"/>
<path d="M841 186 c-10 -12 -8 -13 8 -9 12 3 18 9 15 14 -7 12 -10 11 -23 -5z"/>
<path d="M1355 190 c3 -5 8 -10 11 -10 2 0 4 5 4 10 0 6 -5 10 -11 10 -5 0 -7
-4 -4 -10z"/>
<path d="M1888 193 c7 -3 16 -2 19 1 4 3 -2 6 -13 5 -11 0 -14 -3 -6 -6z"/>
<path d="M2484 189 c-4 -7 1 -16 10 -21 9 -5 16 -16 16 -23 0 -9 10 -15 25
-15 29 0 32 -8 8 -25 -11 -8 -13 -14 -5 -19 7 -4 12 -2 12 4 0 6 4 9 9 6 13
-8 41 4 41 17 0 7 -4 7 -12 -1 -17 -17 -33 -15 -19 2 10 11 8 16 -8 21 -12 3
-21 10 -21 15 0 5 -9 12 -20 15 -32 10 -23 24 10 15 16 -5 32 -5 35 0 2 4 -9
10 -26 14 -42 8 -47 8 -55 -5z"/>
<path d="M417 183 c-12 -11 -8 -23 8 -23 8 0 15 7 15 15 0 16 -12 20 -23 8z"/>
<path d="M0 170 c0 -5 5 -10 11 -10 5 0 7 5 4 10 -3 6 -8 10 -11 10 -2 0 -4
-4 -4 -10z"/>
<path d="M1510 169 c0 -5 5 -7 10 -4 6 3 10 8 10 11 0 2 -4 4 -10 4 -5 0 -10
-5 -10 -11z"/>
<path d="M1578 155 c3 -19 8 -23 15 -16 8 8 7 16 -5 27 -14 14 -15 14 -10 -11z"/>
<path d="M2580 170 c-8 -5 -11 -12 -7 -16 4 -4 13 -2 19 4 15 15 7 24 -12 12z"/>
<path d="M925 154 c-19 -14 -19 -24 0 -24 8 0 15 6 15 14 0 9 7 12 19 9 10 -3
21 -1 24 4 8 12 -40 10 -58 -3z"/>
<path d="M1740 161 l-25 -7 26 -7 c14 -4 31 -17 38 -29 11 -22 11 -21 6 6 -4
19 -1 32 7 37 16 11 -15 10 -52 0z"/>
<path d="M1950 161 c0 -9 30 -24 36 -18 2 1 -6 8 -16 15 -11 7 -20 8 -20 3z"/>
<path d="M2010 161 c0 -17 18 -21 24 -6 3 9 0 15 -9 15 -8 0 -15 -4 -15 -9z"/>
<path d="M2110 159 c0 -5 5 -7 10 -4 6 3 10 8 10 11 0 2 -4 4 -10 4 -5 0 -10
-5 -10 -11z"/>
<path d="M35 150 c3 -5 8 -10 11 -10 2 0 4 5 4 10 0 6 -5 10 -11 10 -5 0 -7
-4 -4 -10z"/>
<path d="M505 150 c3 -5 8 -10 11 -10 2 0 4 5 4 10 0 6 -5 10 -11 10 -5 0 -7
-4 -4 -10z"/>
<path d="M539 143 c-12 -15 -12 -16 4 -10 20 8 57 -24 57 -50 0 -15 2 -14 15
3 20 26 19 34 -5 34 -10 0 -24 9 -30 20 -13 24 -23 25 -41 3z"/>
<path d="M791 146 c-12 -14 -5 -26 16 -26 7 0 13 7 13 16 0 9 6 14 13 11 6 -2
11 -10 10 -16 -2 -6 6 -11 17 -11 13 0 20 7 20 19 0 15 -8 19 -39 19 -22 0
-44 -5 -50 -12z"/>
<path d="M1227 153 c-15 -14 -6 -31 13 -26 15 4 19 1 15 -9 -3 -8 0 -20 8 -26
10 -9 15 -3 24 28 l10 40 -32 0 c-17 0 -35 -3 -38 -7z"/>
<path d="M1436 151 c-3 -5 1 -11 9 -15 8 -3 15 -1 15 4 0 13 -18 22 -24 11z"/>
<path d="M120 140 c0 -5 5 -10 11 -10 5 0 7 5 4 10 -3 6 -8 10 -11 10 -2 0 -4
-4 -4 -10z"/>
<path d="M1508 133 c0 -10 -2 -22 -3 -28 -2 -5 -3 -18 -4 -27 0 -10 -7 -18
-15 -18 -7 0 -19 -7 -26 -15 -11 -13 -8 -15 14 -15 16 0 26 6 26 14 0 14 27
29 39 22 4 -3 7 4 7 15 0 10 -4 19 -8 19 -5 0 -1 12 9 28 10 16 11 22 3 15
-17 -15 -34 -17 -25 -3 3 6 1 10 -4 10 -6 0 -12 -8 -13 -17z"/>
<path d="M2336 143 c6 -4 14 -15 17 -23 5 -11 6 -9 4 4 -1 11 -9 21 -17 23
-10 3 -11 2 -4 -4z"/>
<path d="M2410 140 c0 -5 5 -10 11 -10 5 0 7 5 4 10 -3 6 -8 10 -11 10 -2 0
-4 -4 -4 -10z"/>
<path d="M1623 133 c-15 -5 -17 -23 -4 -23 5 0 11 7 15 15 3 8 4 15 3 14 -1 0
-8 -3 -14 -6z"/>
<path d="M1930 136 c0 -2 7 -9 15 -16 9 -7 15 -8 15 -2 0 5 -7 12 -15 16 -8 3
-15 4 -15 2z"/>
<path d="M1880 119 c-14 -4 -21 -7 -16 -8 6 -1 1 -8 -10 -16 -13 -11 -15 -15
-4 -13 22 3 61 -12 55 -21 -2 -5 -17 -7 -32 -5 -24 4 -25 3 -8 -5 28 -13 32
-13 50 5 10 10 12 20 6 28 -5 6 -10 18 -12 27 -3 11 -11 13 -29 8z"/>
<path d="M2011 113 c7 -7 17 -12 23 -10 6 2 27 -7 46 -20 40 -27 70 -32 50 -8
-6 8 -17 13 -23 12 -7 -1 -11 3 -10 9 1 6 -20 16 -47 21 -42 9 -48 8 -39 -4z"/>
<path d="M2205 119 c-4 -6 -5 -12 -2 -15 2 -3 7 2 10 11 7 17 1 20 -8 4z"/>
<path d="M670 110 c0 -5 5 -10 10 -10 6 0 10 5 10 10 0 6 -4 10 -10 10 -5 0
-10 -4 -10 -10z"/>
<path d="M920 110 c0 -5 5 -10 10 -10 6 0 10 5 10 10 0 6 -4 10 -10 10 -5 0
-10 -4 -10 -10z"/>
<path d="M1010 104 c0 -9 5 -14 12 -12 18 6 21 28 4 28 -9 0 -16 -7 -16 -16z"/>
<path d="M1382 108 c6 -18 28 -21 28 -4 0 9 -7 16 -16 16 -9 0 -14 -5 -12 -12z"/>
<path d="M1440 110 c0 -5 7 -10 15 -10 8 0 15 5 15 10 0 6 -7 10 -15 10 -8 0
-15 -4 -15 -10z"/>
<path d="M1639 99 c-8 -16 -8 -23 1 -29 20 -12 50 1 50 22 0 17 -2 18 -15 8
-9 -7 -18 -10 -22 -6 -3 3 -1 6 5 6 7 0 12 5 12 10 0 18 -19 11 -31 -11z"/>
<path d="M1711 104 c0 -11 3 -14 6 -6 3 7 2 16 -1 19 -3 4 -6 -2 -5 -13z"/>
<path d="M1975 110 c3 -5 8 -10 11 -10 2 0 4 5 4 10 0 6 -5 10 -11 10 -5 0 -7
-4 -4 -10z"/>
<path d="M2435 106 c15 -12 17 -19 8 -24 -8 -5 1 -8 20 -8 20 0 34 5 34 12 0
7 -6 10 -13 7 -7 -2 -25 3 -41 12 -25 15 -26 15 -8 1z"/>
<path d="M555 90 c10 -11 20 -20 22 -20 2 0 -2 9 -9 20 -7 11 -17 20 -22 20
-5 0 -1 -9 9 -20z"/>
<path d="M965 100 c-3 -5 -1 -10 4 -10 6 0 11 5 11 10 0 6 -2 10 -4 10 -3 0
-8 -4 -11 -10z"/>
<path d="M2380 100 c8 -5 20 -10 25 -10 6 0 3 5 -5 10 -8 5 -19 10 -25 10 -5
0 -3 -5 5 -10z"/>
<path d="M256 90 c-17 -6 -18 -7 -3 -13 9 -3 19 -2 23 4 9 15 2 18 -20 9z"/>
<path d="M630 80 c0 -5 7 -10 15 -10 8 0 15 5 15 10 0 6 -7 10 -15 10 -8 0
-15 -4 -15 -10z"/>
<path d="M1320 75 c0 -8 7 -15 15 -15 8 0 15 7 15 15 0 8 -7 15 -15 15 -8 0
-15 -7 -15 -15z"/>
<path d="M2200 80 c20 -13 33 -13 25 0 -3 6 -14 10 -23 10 -15 0 -15 -2 -2
-10z"/>
<path d="M376 63 c-6 -14 -5 -15 5 -6 7 7 10 15 7 18 -3 3 -9 -2 -12 -12z"/>
<path d="M1798 73 c7 -3 16 -2 19 1 4 3 -2 6 -13 5 -11 0 -14 -3 -6 -6z"/>
<path d="M1970 69 c0 -5 6 -9 13 -10 6 0 3 -4 -8 -9 -15 -7 -16 -9 -4 -9 14
-1 49 27 38 30 -31 6 -39 6 -39 -2z"/>
<path d="M2560 76 c0 -2 8 -10 18 -17 15 -13 16 -12 3 4 -13 16 -21 21 -21 13z"/>
<path d="M417 59 c7 -7 15 -10 18 -7 3 3 -2 9 -12 12 -14 6 -15 5 -6 -5z"/>
<path d="M831 54 c0 -11 3 -14 6 -6 3 7 2 16 -1 19 -3 4 -6 -2 -5 -13z"/>
<path d="M1717 61 c-30 -11 -15 -26 25 -26 21 0 37 4 35 9 -5 14 -40 24 -60
17z"/>
<path d="M270 50 c19 -13 30 -13 30 0 0 6 -10 10 -22 10 -19 0 -20 -2 -8 -10z"/>
<path d="M640 50 c0 -12 44 -24 62 -17 7 3 3 6 -9 6 -12 1 -25 6 -28 11 -8 13
-25 13 -25 0z"/>
<path d="M920 56 c0 -2 9 -6 20 -9 11 -3 20 -1 20 4 0 5 -9 9 -20 9 -11 0 -20
-2 -20 -4z"/>
<path d="M1130 39 c0 -15 -4 -19 -16 -15 -8 3 -22 -1 -30 -9 -14 -13 -10 -15
30 -15 44 0 46 1 46 30 0 20 -5 30 -15 30 -9 0 -15 -9 -15 -21z"/>
<path d="M2175 50 c-3 -5 1 -10 9 -10 9 0 16 5 16 10 0 6 -4 10 -9 10 -6 0
-13 -4 -16 -10z"/>
<path d="M2540 50 c0 -5 5 -10 11 -10 5 0 7 5 4 10 -3 6 -8 10 -11 10 -2 0 -4
-4 -4 -10z"/>
<path d="M1630 40 c0 -5 5 -10 11 -10 5 0 7 5 4 10 -3 6 -8 10 -11 10 -2 0 -4
-4 -4 -10z"/>
<path d="M2080 46 c0 -2 7 -6 15 -10 8 -3 15 -1 15 4 0 6 -7 10 -15 10 -8 0
-15 -2 -15 -4z"/>
<path d="M1571 31 c-20 -13 -4 -31 24 -29 23 2 23 3 8 20 -9 10 -17 18 -17 18
-1 0 -7 -4 -15 -9z"/>
<path d="M1897 33 c-32 -4 -35 -6 -23 -19 8 -8 27 -14 43 -14 22 0 29 5 29 20
0 11 -3 19 -6 18 -3 -1 -22 -3 -43 -5z"/>
<path d="M2260 36 c0 -2 7 -7 16 -10 8 -3 12 -2 9 4 -6 10 -25 14 -25 6z"/>
<path d="M410 15 c0 -8 7 -15 15 -15 8 0 15 7 15 15 0 8 -7 15 -15 15 -8 0
-15 -7 -15 -15z"/>
<path d="M814 15 c8 -8 18 -15 22 -15 3 0 1 7 -6 15 -7 8 -17 15 -22 15 -5 0
-3 -7 6 -15z"/>
<path d="M1386 22 c-3 -4 4 -9 15 -9 23 -2 25 3 4 10 -8 4 -16 3 -19 -1z"/>
<path d="M1649 13 c-12 -15 -12 -16 4 -10 10 4 23 7 28 7 5 0 9 5 9 10 0 16
-26 12 -41 -7z"/>
<path d="M1975 20 c-3 -6 1 -7 9 -4 18 7 21 14 7 14 -6 0 -13 -4 -16 -10z"/>
<path d="M2470 15 c0 -8 7 -15 15 -15 8 0 15 7 15 15 0 8 -7 15 -15 15 -8 0
-15 -7 -15 -15z"/>
<path d="M975 10 c3 -5 11 -10 16 -10 6 0 7 5 4 10 -3 6 -11 10 -16 10 -6 0
-7 -4 -4 -10z"/>
</g>
</svg>
